<svg width="498" height="499" viewBox="0 0 498 499" fill="none" xmlns="http://www.w3.org/2000/svg">
<path d="M497.399 239.495C497.252 235.437 496.983 231.382 496.636 227.335C496.252 222.869 495.72 218.41 495.073 213.969C494.212 207.922 493.135 201.903 491.856 195.934C490.216 188.294 488.166 180.742 485.809 173.292C483.43 165.779 480.621 158.416 477.545 151.162C471.578 137.082 464.173 123.624 455.695 110.903C453.484 107.588 451.195 104.326 448.828 101.123C448.785 100.562 448.542 100.032 448.143 99.634C447.925 99.416 447.625 99.212 447.303 99.081C440.951 90.666 434.07 82.651 426.726 75.091C416.03 64.079 404.239 54.146 391.716 45.273C366.812 27.625 338.522 14.786 308.93 7.37C293.83 3.586 278.339 1.324 262.808 0.409996C258.114 0.134996 253.412 0 248.712 0C237.755 0 226.799 0.738997 215.94 2.173C208.264 3.187 200.648 4.548 193.1 6.267C185.581 7.977 178.157 10.088 170.836 12.507C156.187 17.346 142.015 23.647 128.513 31.099C114.731 38.706 101.759 47.729 89.6534 57.778C77.5564 67.821 66.4874 79.081 56.5124 91.227C46.6884 103.187 37.9954 116.049 30.5314 129.603C23.0934 143.112 16.9884 157.371 12.1814 172.02C9.71136 179.539 7.66036 187.191 5.93736 194.913C5.73936 195.802 5.54736 196.69 5.36036 197.579C5.25836 197.717 5.15637 197.856 5.05437 197.994C4.73037 199.955 4.24537 201.882 3.77337 203.821C3.66737 204.255 3.56536 204.69 3.46336 205.126C3.66036 204.867 3.85737 204.607 4.05437 204.347C3.24237 208.908 2.55937 213.49 1.97537 218.084C0.98837 225.844 0.414374 233.645 0.135374 241.46C-0.141626 249.22 0.0233622 256.988 0.476362 264.738C1.38636 280.276 3.83037 295.739 7.62837 310.829C11.4024 325.827 16.7184 340.419 23.2094 354.448C36.2534 382.644 54.8654 408.244 77.3214 429.678C83.1434 435.235 89.2534 440.496 95.5994 445.455C95.5224 445.559 95.4464 445.663 95.3714 445.769C95.1834 446.036 95.0754 446.35 94.9944 446.662C94.7904 447.445 95.2434 448.421 96.0884 448.592C96.2824 448.629 96.4764 448.668 96.6754 448.661C97.3654 448.63 97.9764 448.212 98.1644 447.527C98.1704 447.501 98.1764 447.474 98.1824 447.449C103.082 451.176 108.115 454.726 113.259 458.096C119.816 462.39 126.599 466.335 133.534 469.985C140.464 473.633 147.598 476.874 154.837 479.86C183.405 491.645 214.229 497.706 245.102 498.195C260.857 498.444 276.615 497.097 292.136 494.415C307.477 491.763 322.536 487.567 337.091 482.055C351.475 476.61 365.32 469.797 378.451 461.796C391.517 453.834 403.81 444.577 415.211 434.381C437.806 414.169 456.561 389.677 470.411 362.729C477.402 349.13 483.065 334.843 487.443 320.196C491.947 305.137 494.866 289.637 496.454 274.007C497.241 266.267 497.625 258.477 497.596 250.698C497.582 246.96 497.534 243.228 497.399 239.495ZM439.902 99.81C439.9 99.81 439.9 99.81 439.898 99.81C438.38 97.886 436.84 95.987 435.28 94.119C436.848 95.995 438.389 97.892 439.902 99.81ZM422.126 103.053C421.406 103.382 420.722 103.765 420.053 104.185C419.975 103.832 419.896 103.481 419.818 103.13C419.539 101.894 419.251 100.658 418.953 99.427C420.021 100.624 421.1 101.815 422.126 103.053ZM416.934 90.91C416.76 90.714 416.585 90.52 416.408 90.326C416.404 90.318 416.4 90.31 416.396 90.304C416.577 90.506 416.755 90.708 416.934 90.91ZM341.92 41.395C342.002 41.458 342.085 41.519 342.167 41.581C342.096 41.579 342.028 41.577 341.959 41.577C341.941 41.508 341.922 41.442 341.898 41.377C341.906 41.383 341.912 41.389 341.92 41.395ZM341.288 40.498C341.286 40.496 341.284 40.494 341.282 40.492C341.274 40.433 341.268 40.374 341.266 40.315C341.271 40.377 341.277 40.438 341.288 40.498ZM343.073 44.679C343.548 44.693 344.022 44.708 344.497 44.724C344.929 44.74 345.356 44.744 345.788 44.746C345.998 44.746 346.208 44.746 346.418 44.748C346.867 45.08 347.318 45.413 347.768 45.744C348.464 46.258 349.196 46.729 349.91 47.221C350.557 47.666 351.197 48.123 351.858 48.549C352.786 49.149 353.716 49.75 354.644 50.35C355.448 50.87 356.288 51.339 357.108 51.831C358.542 52.692 360.017 53.489 361.472 54.312C363.169 55.271 364.84 56.258 366.511 57.258C367.37 57.772 368.196 58.351 369.035 58.896C369.808 59.396 370.555 59.936 371.31 60.459C372.773 61.471 374.219 62.509 375.682 63.521C377.12 64.515 378.575 65.485 380.011 66.483C381.71 67.664 383.399 68.854 385.076 70.067C386.524 71.115 387.958 72.184 389.405 73.231C392.349 75.359 395.36 77.391 398.285 79.549C399.303 80.3 400.309 81.065 401.314 81.832C404.125 84.092 406.859 86.436 409.439 88.964C410.82 90.317 412.173 91.691 413.497 93.103C413.972 93.607 414.429 94.129 414.88 94.659C414.903 94.745 414.925 94.833 414.949 94.92C415.31 96.305 415.657 97.692 415.995 99.08C416.699 101.983 417.354 104.9 417.959 107.827C419.13 113.5 420.103 119.21 420.884 124.949C420.888 124.986 420.894 125.024 420.9 125.061C420.908 125.122 420.916 125.181 420.923 125.241C422.865 139.888 423.491 154.698 422.812 169.457C422.514 175.987 421.951 182.501 421.133 188.988C420.246 189.272 419.366 189.553 418.465 189.788C417.623 190.006 416.778 190.2 415.933 190.398C414.177 190.81 412.443 191.292 410.721 191.822C409.044 192.34 407.377 192.889 405.693 193.379C403.959 193.883 402.223 194.375 400.481 194.854C396.923 195.829 393.353 196.796 389.861 197.996C388.808 198.359 387.756 198.72 386.703 199.083C385.84 199.379 384.991 199.722 384.135 200.04C382.328 200.715 380.526 201.401 378.723 202.088C377.087 202.712 375.443 203.308 373.796 203.902C372.174 204.488 370.555 205.085 368.914 205.614C367.115 206.195 365.322 206.811 363.51 207.344C361.745 207.862 359.979 208.38 358.214 208.9C356.05 209.538 353.887 210.175 351.723 210.813C349.918 211.345 348.128 211.939 346.333 212.502C342.687 213.644 339.075 214.885 335.454 216.103C334.45 216.44 333.449 216.786 332.447 217.133C332.465 216.949 332.482 216.764 332.504 216.582C332.541 216.358 332.59 216.139 332.647 215.919C332.802 215.321 332.553 214.679 332.013 214.366C331.807 214.244 331.562 214.186 331.317 214.186C330.836 214.186 330.35 214.413 330.132 214.861C329.93 215.273 329.755 215.693 329.62 216.132C329.567 216.297 329.536 216.469 329.494 216.638C329.412 216.971 329.365 217.313 329.308 217.65C329.171 218.47 329.143 219.313 329.098 220.143C329.084 220.39 329.072 220.639 329.065 220.886C329.061 220.88 329.055 220.876 329.051 220.87C326.799 218.279 324.492 215.742 322.133 213.255C318.418 209.322 314.565 205.521 310.603 201.839C306.266 197.812 301.77 193.954 297.147 190.256C295.958 189.301 294.762 188.355 293.557 187.422C287.076 182.397 280.354 177.679 273.388 173.35C266.599 169.129 259.622 165.208 252.448 161.679C249.553 160.255 246.633 158.883 243.69 157.563C243.694 157.557 243.698 157.551 243.702 157.544C244.085 156.875 244.132 156.041 244.224 155.296C244.279 154.859 244.291 154.415 244.301 153.976C244.319 153.182 244.348 152.387 244.375 151.593C244.434 149.853 244.402 148.111 244.322 146.371C244.153 142.713 243.924 139.047 243.463 135.412C243.245 133.7 243.012 131.993 242.726 130.29C242.443 128.614 242.172 126.936 241.912 125.254C241.801 124.385 241.692 123.517 241.581 122.647C241.462 121.716 241.41 120.772 241.329 119.837C241.441 117.519 241.594 115.203 241.775 112.887C242.063 109.197 242.416 105.512 242.738 101.824C243.075 97.934 243.368 94.042 243.635 90.147C243.716 88.956 243.783 87.764 243.845 86.571C243.89 86.21 243.94 85.85 243.984 85.489C244.343 82.529 244.561 79.553 244.79 76.584C244.899 75.179 245.034 73.777 245.187 72.378C245.302 71.916 245.417 71.455 245.528 70.994C245.816 69.799 246.103 68.605 246.391 67.41C246.74 65.953 247.14 64.507 247.527 63.057C247.706 62.387 247.388 61.685 246.798 61.366C248.245 60.798 249.696 60.241 251.155 59.702C254.843 58.337 258.568 57.068 262.318 55.883C269.819 53.517 277.438 51.524 285.131 49.89C291.143 48.613 297.204 47.569 303.295 46.746C310.806 45.747 318.358 45.092 325.93 44.777C329.735 44.618 333.547 44.549 337.356 44.571C339.26 44.584 341.167 44.622 343.073 44.679ZM458.662 282.408C458.662 282.408 458.662 282.408 458.66 282.408L458.605 282.157C458.625 282.241 458.643 282.323 458.662 282.408ZM421.877 200.044C421.826 200.315 421.777 200.587 421.724 200.862C421.775 200.587 421.826 200.311 421.875 200.036C421.875 200.04 421.877 200.042 421.877 200.044ZM398.629 371.718C398.554 371.814 398.48 371.912 398.405 372.008C398.405 372.006 398.405 372.004 398.405 372.002C398.48 371.908 398.554 371.812 398.629 371.718ZM278.269 484.754C278.511 484.717 278.753 484.675 278.996 484.637C278.935 484.719 278.881 484.805 278.832 484.895C278.645 484.848 278.456 484.803 278.269 484.754ZM207.433 453.058C207.368 452.819 207.243 452.602 207.083 452.415C207.086 451.908 206.965 451.401 206.695 450.954C206.366 450.411 206.018 449.965 205.467 449.628C205.014 449.349 204.561 449.161 204.039 449.069C203.511 448.977 203.001 448.941 202.47 448.924C202.207 448.915 201.944 448.905 201.681 448.894C201.738 448.399 201.792 447.904 201.853 447.41C202.093 445.677 202.387 443.954 202.73 442.236C203.079 440.494 203.477 438.762 203.848 437.024C204.595 433.497 205.178 429.937 205.855 426.396C206.563 422.695 207.297 419.001 208.252 415.352C209.192 411.76 210.257 408.2 211.398 404.669C212.534 401.152 213.84 397.694 214.939 394.165C215.479 392.433 215.945 390.675 216.416 388.924C216.897 387.141 217.191 385.307 217.51 383.489C217.646 382.711 217.767 381.93 217.883 381.149C218.093 381.276 218.301 381.407 218.502 381.551C218.818 381.735 219.159 381.828 219.526 381.828C220.062 381.828 220.581 381.614 220.96 381.234C221.723 380.471 221.766 379.123 220.96 378.366C220.17 377.625 219.24 377.064 218.322 376.5C217.73 376.137 217.139 375.778 216.547 375.417C216.533 375.386 216.517 375.352 216.5 375.321C216.435 375.209 216.347 375.121 216.235 375.056C216.119 374.987 216.003 374.958 215.888 374.958C215.859 374.958 215.829 374.96 215.8 374.964C215.072 374.521 214.344 374.077 213.617 373.634C221.449 372.447 229.225 370.864 236.91 368.944C245.704 366.747 254.372 364.056 262.865 360.892C271.464 357.689 279.883 353.962 288.067 349.803C298.571 344.468 308.699 338.393 318.356 331.645C318.393 332.063 318.434 332.481 318.478 332.898C318.505 333.171 318.568 333.398 318.768 333.598C318.952 333.782 319.207 333.888 319.468 333.888C319.968 333.888 320.515 333.435 320.46 332.897C320.411 332.42 320.37 331.946 320.331 331.469C320.413 331.494 320.496 331.522 320.578 331.547C321.594 331.871 322.581 332.287 323.567 332.687C325.185 333.391 326.806 334.09 328.408 334.827C330.295 335.696 332.18 336.567 334.065 337.438C334.712 337.738 335.358 338.036 336.005 338.334C336.036 338.35 336.07 338.365 336.101 338.379C338.935 339.689 341.768 341.002 344.587 342.339C345.466 342.757 346.319 343.239 347.182 343.689C347.835 344.028 348.484 344.364 349.122 344.732C350.87 345.742 352.617 346.747 354.348 347.786C357.787 349.852 361.221 351.923 364.633 354.036C365.412 354.519 366.167 355.044 366.932 355.548C367.554 355.958 368.166 356.376 368.776 356.805C370.198 357.805 371.595 358.827 372.991 359.865C373.707 360.434 374.423 361.005 375.137 361.572C375.851 362.141 376.536 362.749 377.232 363.335C378.701 364.575 380.143 365.848 381.624 367.072C383.123 368.31 384.659 369.52 386.251 370.638C387 371.164 387.746 371.701 388.526 372.184C389.291 372.659 390.066 373.151 390.892 373.516C390.931 373.533 390.969 373.549 391.008 373.566C390.995 373.821 390.98 374.075 390.963 374.328C390.916 375.001 390.881 375.674 390.822 376.345C390.7 377.771 390.567 379.195 390.442 380.619C390.277 382.481 390.138 384.346 389.971 386.207C389.887 387.152 389.834 388.108 389.716 389.051C389.607 389.919 389.498 390.788 389.389 391.656C389.163 392.948 388.961 394.245 388.688 395.528C388.374 397.009 388.052 398.488 387.717 399.965C387.076 402.803 386.493 405.652 385.928 408.508C385.43 411.025 384.961 413.549 384.351 416.042C383.996 417.495 383.637 418.947 383.257 420.395C382.872 421.852 382.474 423.306 382.072 424.759C381.38 427.258 380.632 429.739 379.895 432.225C379.067 435.014 378.245 437.806 377.323 440.566C377.233 440.836 377.131 441.093 377.06 441.361C366.499 448.59 355.42 455.046 343.908 460.632C340.397 462.317 336.844 463.92 333.257 465.442C333.363 465.397 333.469 465.352 333.575 465.309C333.438 465.368 333.299 465.425 333.161 465.483C333.128 465.497 333.094 465.511 333.063 465.524C333.092 465.51 333.124 465.498 333.153 465.485C316.966 472.278 300.028 477.307 282.788 480.601C282.545 480.647 282.312 480.778 282.112 480.948C282.011 480.99 281.912 481.039 281.817 481.094C279.586 481.498 277.347 481.87 275.105 482.201C274.742 482.254 274.381 482.589 274.205 482.894C274.077 483.11 274.009 483.355 274.001 483.604C263.901 480.793 253.981 477.337 244.321 473.265C231.5 467.818 219.182 461.243 207.479 453.695C207.504 453.485 207.492 453.267 207.433 453.058ZM63.0414 349.727H63.0434C63.0844 349.768 63.1254 349.807 63.1694 349.849C63.1254 349.809 63.0844 349.768 63.0414 349.727ZM66.8624 346.6C66.9094 346.557 66.9564 346.514 67.0034 346.471C67.0074 346.469 67.0134 346.467 67.0174 346.465C66.9644 346.509 66.9134 346.555 66.8624 346.6ZM116.409 173.994C116.38 173.955 116.348 173.916 116.319 173.876L116.303 173.854C116.339 173.902 116.374 173.947 116.409 173.994ZM116.248 173.779L116.223 173.744C116.256 173.787 116.29 173.828 116.321 173.872C116.297 173.839 116.272 173.81 116.248 173.779ZM93.4514 144.065L93.4184 144.018C93.7384 144.434 94.0554 144.846 94.3674 145.25C94.0634 144.858 93.7594 144.465 93.4554 144.073C93.4754 144.097 93.4924 144.122 93.5124 144.146C93.4924 144.118 93.4714 144.092 93.4514 144.065ZM141.923 187.302C141.882 187.351 141.843 187.404 141.809 187.461C141.809 187.461 141.807 187.461 141.805 187.461C141.841 187.404 141.88 187.351 141.923 187.302ZM232.808 63.719C233.177 63.823 233.549 63.927 233.92 64.027C233.918 64.027 233.916 64.029 233.916 64.029C233.546 63.927 233.175 63.823 232.808 63.719ZM148.075 53.851C147.812 54.059 147.555 54.269 147.302 54.485C147.557 54.267 147.814 54.055 148.075 53.848C148.075 53.848 148.075 53.849 148.075 53.851ZM104.724 103.559L104.727 103.556C104.725 103.557 104.724 103.559 104.724 103.559ZM86.3424 134.581L86.7724 135.162C86.6294 134.97 86.4844 134.778 86.3384 134.585C86.3404 134.585 86.3404 134.583 86.3424 134.581ZM138.793 202.072C139.132 202.286 139.476 202.492 139.827 202.688C140.153 202.869 140.512 202.959 140.867 202.959C141.393 202.959 141.913 202.763 142.307 202.369C142.69 201.987 142.905 201.463 142.905 200.921C142.905 200.452 142.722 199.912 142.382 199.562C142.588 199.421 142.75 199.237 142.864 199.03C143.144 198.828 143.424 198.626 143.705 198.425C144.462 197.882 145.259 197.383 146.033 196.865C146.673 196.435 147.322 196.022 147.967 195.602C150.672 193.842 153.371 192.077 156.047 190.274C158.983 188.297 161.914 186.314 164.89 184.395C164.926 184.372 164.963 184.351 164.998 184.328C165.144 184.259 165.289 184.185 165.436 184.118C166.597 183.586 167.757 183.053 168.92 182.527C174.207 180.132 179.43 177.605 184.74 175.267C188.738 173.605 192.75 171.978 196.674 170.145C198.547 169.272 200.397 168.36 202.257 167.458C203.139 167.029 204.016 166.586 204.904 166.167C206.977 165.315 209.044 164.449 211.091 163.539C211.161 163.508 211.23 163.477 211.299 163.446C212.46 163.038 213.619 162.632 214.787 162.252C217.098 161.501 219.42 160.763 221.752 160.081C224.171 159.371 226.607 158.759 229.061 158.18C231.016 157.72 232.97 157.299 234.948 156.965C235.463 157.177 235.98 157.387 236.493 157.603C251.209 163.838 265.282 171.526 278.517 180.483C282.844 183.414 287.081 186.482 291.222 189.673C292.191 190.422 293.156 191.181 294.113 191.946C299.101 195.952 303.931 200.145 308.607 204.518C310.908 206.67 313.164 208.869 315.378 211.111C315.417 211.15 315.457 211.192 315.496 211.231C315.598 211.335 315.698 211.437 315.8 211.539C315.89 211.631 315.98 211.725 316.071 211.818C316.124 211.869 316.175 211.922 316.226 211.975C319.751 215.58 323.166 219.292 326.471 223.103C327.33 224.093 328.181 225.09 329.027 226.094C329.025 228.336 329.025 230.576 329.015 232.818C329.005 235.552 328.966 238.289 328.889 241.023C328.815 243.697 328.675 246.374 328.401 249.036C328.325 249.77 328.25 250.503 328.174 251.235C328.019 252.392 327.884 253.553 327.686 254.703C327.453 256.076 327.237 257.455 326.974 258.824C326.438 261.592 325.874 264.358 325.364 267.131C325.107 268.533 324.828 269.932 324.595 271.339C324.364 272.741 324.103 274.144 323.901 275.552C323.681 277.068 323.464 278.585 323.246 280.103C323.016 281.711 322.844 283.332 322.644 284.944C322.316 287.582 322.075 290.234 321.824 292.881C321.573 295.515 321.308 298.148 320.996 300.776C320.666 303.573 320.337 306.37 320.003 309.168C319.658 312.081 319.293 314.992 318.981 317.909C318.859 319.043 318.73 320.177 318.618 321.31C318.544 322.089 318.467 322.867 318.393 323.646C318.34 324.183 318.254 324.731 318.234 325.272C318.212 325.949 318.187 326.625 318.163 327.302C318.159 327.414 318.157 327.526 318.157 327.639C317.625 328.019 317.092 328.396 316.556 328.773C316.162 328.773 315.77 328.8 315.381 328.859C314.757 328.955 314.149 329.395 313.806 329.912C313.622 330.187 313.48 330.461 313.447 330.795C313.443 330.838 313.439 330.883 313.439 330.927C311.972 331.925 310.493 332.906 309.004 333.871C306.015 335.805 302.984 337.672 299.916 339.477C299.433 339.76 298.953 340.04 298.468 340.318C290.537 344.888 282.34 348.986 273.947 352.635C273.472 352.839 273 353.043 272.525 353.243C255.779 360.297 238.325 365.619 220.43 368.818C217.044 369.424 213.643 369.952 210.234 370.417C210.236 370.417 210.238 370.415 210.24 370.415C210.236 370.415 210.232 370.417 210.228 370.417H210.226C210.224 370.417 210.22 370.417 210.218 370.419C210.202 370.421 210.189 370.423 210.175 370.423C210.181 370.423 210.187 370.423 210.195 370.423C210.044 370.443 209.897 370.462 209.748 370.482C209.842 370.468 209.936 370.456 210.031 370.443C209.543 370.508 209.052 370.571 208.564 370.633C208.413 370.549 208.262 370.464 208.111 370.382C206.646 369.584 205.169 368.805 203.69 368.03C200.785 366.512 197.952 364.874 195.142 363.191C192.512 361.614 189.944 359.933 187.333 358.324C184.436 356.539 181.513 354.795 178.626 352.993C177.369 352.206 176.143 351.363 174.934 350.502C173.628 349.568 172.335 348.619 171.054 347.648C166.747 344.386 162.413 341.155 158.129 337.864C153.149 333.931 148.231 329.912 143.453 325.732C142.127 324.573 140.805 323.412 139.5 322.229C138.319 321.158 137.17 320.057 136.012 318.963C134.886 317.9 133.803 316.786 132.715 315.681C131.44 314.384 130.165 313.088 128.886 311.793C128.449 311.348 127.994 310.92 127.538 310.492C127.261 310.231 126.985 309.972 126.71 309.711C126.692 309.695 126.677 309.68 126.659 309.664C126.63 309.384 126.6 309.103 126.571 308.823C126.683 308.672 126.769 308.501 126.826 308.295C126.949 307.842 126.885 307.346 126.647 306.94C126.565 306.799 126.463 306.671 126.347 306.559C126.331 306.398 126.318 306.239 126.302 306.078C126.18 304.756 126.069 303.434 125.967 302.112C125.967 301.932 125.965 301.749 125.965 301.569C125.965 301.318 125.965 301.073 125.945 300.822C125.923 300.573 125.904 300.322 125.884 300.073C125.798 298.986 125.711 297.9 125.645 296.813C125.514 294.651 125.416 292.488 125.343 290.322C125.321 289.673 125.302 289.025 125.284 288.376C125.127 281.473 125.26 274.563 125.67 267.67C126.033 261.622 126.617 255.589 127.42 249.584C128.556 241.234 130.109 232.94 132.096 224.753C133.953 217.088 136.201 209.52 138.793 202.072ZM321.681 329.821C321.508 329.766 321.334 329.711 321.161 329.656C321.161 329.656 321.163 329.654 321.165 329.654C321.335 329.709 321.508 329.764 321.681 329.821ZM320.557 325.905C320.435 325.993 320.314 326.083 320.19 326.172V326.17L320.557 325.905ZM127.012 312.784C127.014 312.786 127.016 312.788 127.018 312.79C127.03 312.918 127.043 313.043 127.057 313.171C127.043 313.041 127.027 312.914 127.012 312.784ZM197.798 447.128L197.8 447.108C197.8 447.116 197.8 447.122 197.8 447.13C197.8 447.13 197.8 447.13 197.798 447.128ZM200.784 371.417C200.821 371.437 200.857 371.456 200.894 371.476C200.892 371.476 200.888 371.476 200.886 371.476L200.784 371.417ZM332.079 230.744C332.083 230.43 332.087 230.116 332.091 229.802C332.093 229.804 332.093 229.806 332.095 229.806C332.089 230.12 332.085 230.432 332.079 230.744ZM335.598 234.228C335.602 234.236 335.61 234.244 335.614 234.25C335.618 234.254 335.618 234.256 335.622 234.26L335.624 234.262L335.62 234.266C335.387 233.962 335.153 233.658 334.916 233.354C335.145 233.643 335.37 233.936 335.598 234.228ZM320.366 476.044C320.064 476.034 319.762 476.031 319.462 476.032C318.853 476.033 318.241 476.059 317.631 476.102C317.458 476.03 317.273 475.986 317.082 475.952C317.965 475.664 318.849 475.381 319.729 475.083C319.943 475.01 320.157 474.934 320.371 474.861C320.273 475.241 320.272 475.657 320.366 476.044ZM393.57 378.308C393.486 378.581 393.403 378.855 393.322 379.129C393.413 378.13 393.504 377.132 393.591 376.133C393.637 375.608 393.675 375.082 393.707 374.555C394.059 374.623 394.412 374.609 394.747 374.528C394.354 375.788 393.959 377.046 393.57 378.308ZM154.55 25.81C164.517 21.649 174.727 18.138 185.146 15.292C195.426 12.485 205.901 10.4 216.456 8.944C227.207 7.543 238.017 6.82399 248.863 6.80199C259.854 6.78199 270.829 7.52 281.727 8.95C292.417 10.433 302.988 12.598 313.4 15.445C319.069 16.995 324.677 18.768 330.213 20.739C330.146 20.884 330.08 21.031 330.033 21.178C329.949 21.441 329.904 21.712 329.88 21.984C329.833 22.535 329.847 23.085 329.88 23.638C329.955 24.831 330.182 26.017 330.455 27.179C330.555 27.607 330.686 28.026 330.806 28.448C330.918 28.834 331.012 29.229 331.139 29.609C331.667 31.182 332.214 32.744 332.816 34.291C333.118 35.074 333.455 35.864 333.834 36.613C334.183 37.3 334.53 37.988 334.964 38.628C335.654 39.646 336.421 40.617 337.249 41.529C337.124 41.529 337 41.529 336.874 41.529C332.908 41.531 328.942 41.619 324.979 41.802C316.982 42.169 309.008 42.951 301.083 44.091C285.508 46.331 270.165 50.125 255.32 55.335C251.2 56.781 247.123 58.35 243.085 60.011C242.845 59.83 242.536 59.74 242.223 59.74C241.808 59.74 241.389 59.893 241.129 60.185C240.974 60.362 240.835 60.548 240.692 60.734C240.657 60.812 240.623 60.889 240.588 60.965C239.327 60.708 238.065 60.45 236.809 60.17C234.885 59.742 232.966 59.301 231.044 58.872C230.69 58.793 230.335 58.714 229.981 58.636C228.696 58.244 227.413 57.851 226.123 57.473C224.31 56.941 222.484 56.465 220.658 55.98C218.738 55.47 216.813 54.978 214.871 54.556C213.045 54.158 211.209 53.807 209.365 53.501C207.142 53.134 204.92 52.824 202.682 52.585C200.75 52.377 198.806 52.242 196.87 52.083C192.959 51.763 189.055 51.424 185.138 51.222C181.364 51.03 177.582 50.914 173.804 50.789C172.409 50.744 171.019 50.714 169.624 50.707C169.54 50.707 169.455 50.707 169.369 50.707C168.182 50.707 166.998 50.768 165.811 50.813C165.258 50.834 164.705 50.903 164.156 50.948C163.736 50.981 163.318 51.017 162.901 51.052C161.485 50.913 160.064 50.785 158.646 50.658C155.69 50.393 152.728 50.174 149.766 49.956C149.689 49.919 149.609 49.887 149.527 49.864C149.498 49.856 149.466 49.848 149.435 49.842C149.298 48.722 149.164 47.602 149.039 46.48C148.764 44.03 148.541 41.576 148.339 39.118C148.059 35.697 147.855 32.27 147.717 28.839C149.979 27.795 152.259 26.787 154.55 25.81ZM25.5424 154.826C29.5654 145.389 34.1534 136.215 39.2994 127.337C44.5564 118.259 50.4434 109.551 56.8164 101.219C63.0544 93.194 69.7584 85.558 76.9104 78.336C84.3404 70.831 92.2984 63.846 100.629 57.353C109.019 50.909 117.789 45.003 126.916 39.654C133.017 36.078 139.288 32.796 145.684 29.783C145.835 32.898 146.047 36.011 146.316 39.116C146.53 41.574 146.793 44.028 147.079 46.478C147.209 47.584 147.348 48.691 147.495 49.797C146.732 49.834 146.118 50.587 146.118 51.323C146.118 51.46 146.138 51.598 146.173 51.729C146.03 51.841 145.887 51.955 145.743 52.068C145.646 52.146 145.553 52.229 145.457 52.309C145.124 52.46 144.795 52.618 144.485 52.811C144.069 53.07 143.679 53.364 143.294 53.67C142.688 54.152 142.088 54.645 141.489 55.139C140.263 56.149 139.07 57.197 137.903 58.272C135.559 60.432 133.36 62.75 131.242 65.128C126.913 69.985 122.876 75.087 118.847 80.191C116.842 82.733 114.847 85.281 112.882 87.853C111.015 90.297 109.187 92.773 107.329 95.225C105.348 97.84 103.349 100.443 101.366 103.058C100.45 104.264 99.5284 105.469 98.6374 106.695C97.5624 108.17 96.4874 109.643 95.4124 111.12C95.1294 111.508 94.8784 111.924 94.6144 112.324C94.0274 113.207 93.4414 114.091 92.8544 114.976C92.3584 115.725 91.8604 116.475 91.3634 117.224C91.2044 117.463 91.0554 117.699 90.9124 117.946C89.9644 119.588 89.0214 121.23 88.0744 122.872C86.9384 124.843 85.8284 126.826 84.7184 128.813C84.4484 129.297 84.4734 129.874 84.7414 130.323C84.4284 130.502 84.1134 130.677 83.8014 130.857C83.7304 130.89 83.6604 130.924 83.5894 130.957C83.5884 130.955 83.5864 130.953 83.5854 130.951C83.5604 130.88 83.5284 130.818 83.4854 130.761C82.9794 130.106 82.4914 129.429 81.9394 128.811C81.7434 128.589 81.4474 128.482 81.1514 128.482C80.9454 128.482 80.7414 128.535 80.5684 128.635C80.0664 128.929 79.8134 129.675 80.1624 130.183C80.5834 130.793 81.0314 131.384 81.4754 131.979C81.0394 132.196 80.6024 132.414 80.1664 132.63C79.9294 132.748 79.6934 132.868 79.4564 132.988C79.2104 132.796 78.9134 132.688 78.6024 132.688C78.3614 132.688 78.1164 132.747 77.8904 132.866C77.1454 133.26 76.3974 133.651 75.6754 134.086C74.8854 134.563 74.0984 135.045 73.3134 135.53C71.8224 136.452 70.3414 137.389 68.8724 138.341C65.8794 140.279 62.9284 142.284 60.0194 144.347C54.1034 148.541 48.3654 152.992 42.8344 157.684C37.3734 162.319 32.0834 167.164 27.0304 172.241C24.5354 174.746 22.1034 177.31 19.7254 179.926C18.5444 181.223 17.3774 182.531 16.2414 183.867C15.8394 184.34 15.4414 184.816 15.0464 185.295C17.8534 174.914 21.3994 164.744 25.5424 154.826ZM7.90736 273.685C7.63236 271.019 7.39937 268.349 7.20737 265.678C6.80337 260.111 6.63437 254.534 6.62237 248.954C6.60037 238.079 7.29537 227.228 8.70737 216.445C9.81937 208.42 11.3144 200.462 13.1914 192.588C13.8854 191.739 14.5864 190.895 15.2904 190.056C16.4224 188.708 17.5934 187.396 18.7604 186.078C19.9194 184.768 21.0754 183.451 22.2484 182.151C24.6174 179.525 27.0444 176.947 29.5164 174.419C31.9874 171.893 34.5044 169.403 37.0844 166.989C42.6574 161.777 48.4734 156.83 54.5084 152.161C58.4554 149.123 62.4844 146.198 66.6074 143.403C68.5864 142.059 70.5884 140.749 72.6084 139.468C72.4944 139.588 72.4204 139.724 72.3474 139.871C72.2554 140.057 72.2394 140.265 72.3474 140.452C72.3984 140.538 72.4694 140.607 72.5554 140.658C72.6754 140.729 72.8634 140.77 72.9984 140.717C73.3634 140.57 73.7284 140.431 74.0754 140.244C74.4324 140.056 74.7734 139.84 75.1174 139.63C75.3354 139.495 75.5494 139.355 75.7644 139.216C76.2624 138.894 76.7684 138.582 77.2614 138.249C78.1754 137.631 79.0894 137.011 79.9994 136.387C80.9054 135.767 81.8104 135.145 82.7184 134.527C82.8574 134.432 82.9964 134.338 83.1354 134.244C83.2184 134.358 83.3014 134.471 83.3834 134.585C84.5314 136.17 85.6764 137.755 86.8224 139.34C87.7604 140.639 88.6804 141.949 89.6074 143.251C90.7664 144.875 91.9394 146.484 93.1264 148.086C95.1374 150.805 97.2204 153.469 99.2484 156.172C100.297 157.571 101.365 158.957 102.383 160.38C103.442 161.857 104.507 163.33 105.551 164.819C107.74 167.94 109.919 171.068 112.171 174.144C113.311 175.701 114.48 177.235 115.649 178.769C116.194 179.481 116.761 180.174 117.324 180.872C117.814 181.48 118.297 182.094 118.801 182.688C121.231 185.552 123.701 188.377 126.204 191.176C128.625 193.883 131.188 196.506 134.086 198.708C134.924 199.345 135.773 199.963 136.626 200.581C136.512 200.899 136.398 201.217 136.287 201.534C134.869 205.547 133.57 209.602 132.366 213.686C129.957 221.858 127.988 230.163 126.446 238.543C123.447 254.83 122.111 271.415 122.427 287.97C122.462 290.4 122.541 292.831 122.649 295.259C122.71 296.614 122.773 297.97 122.849 299.323C122.888 300.037 122.904 300.763 123.008 301.471C123.045 301.71 123.08 301.95 123.118 302.189C123.173 302.897 123.23 303.603 123.291 304.309C123.364 305.153 123.442 305.994 123.524 306.838C122.559 307.554 121.594 308.27 120.627 308.984C120.421 309.023 120.225 309.098 120.06 309.212C118.683 310.156 117.273 311.058 115.927 312.048C114.464 313.127 113.04 314.261 111.61 315.385C111.61 315.385 111.61 315.385 111.612 315.383C110.543 316.207 109.48 317.039 108.37 317.802C107.676 318.279 106.981 318.755 106.285 319.23C105.587 319.711 104.853 320.148 104.139 320.607C102.948 321.368 101.75 322.117 100.571 322.894C99.1354 323.839 97.7254 324.812 96.3124 325.793C95.0214 326.691 93.7624 327.637 92.4934 328.565C91.9714 328.948 91.4494 329.33 90.9284 329.713C90.3364 330.15 89.7514 330.604 89.1454 331.021C88.3724 331.553 87.6014 332.084 86.8284 332.618C86.3714 332.932 85.9204 333.25 85.4514 333.544C84.1174 334.38 82.7994 335.249 81.4304 336.025C80.0594 336.804 78.6904 337.588 77.3054 338.345C75.8874 339.118 74.4694 339.893 73.0544 340.671C72.1674 341.159 71.2834 341.654 70.4004 342.148C70.3474 341.948 70.2434 341.758 70.0844 341.599C69.8494 341.364 69.5214 341.24 69.1974 341.24C68.8794 341.24 68.5654 341.358 68.3384 341.599C67.5554 342.433 66.7734 343.262 65.9434 344.049C65.6044 344.371 65.2744 344.71 64.9154 345.008C64.7014 345.185 64.4874 345.361 64.2764 345.54C63.7724 345.809 63.2704 346.081 62.7774 346.37C62.5164 346.486 62.3574 346.762 62.3104 347.049C62.1884 347.133 62.0674 347.22 61.9454 347.304C61.8734 347.354 61.7994 347.405 61.7264 347.455C61.4214 346.792 61.1204 346.127 60.8164 345.463C60.6344 345.063 60.1574 344.755 59.7474 344.641C59.5934 344.599 59.4344 344.578 59.2764 344.578C58.9604 344.578 58.6454 344.66 58.3704 344.821C58.3084 344.857 58.2534 344.904 58.1974 344.947C57.7214 344.48 57.2484 344.012 56.7684 343.547C56.5844 343.369 56.3664 343.241 56.1364 343.166C51.3794 338.286 46.8174 333.219 42.4784 327.962C41.1704 326.346 39.8794 324.718 38.6064 323.074C38.6084 323.078 38.6124 323.082 38.6144 323.086C38.6024 323.07 38.5914 323.055 38.5794 323.041C38.5814 323.043 38.5854 323.047 38.5874 323.049C38.5694 323.027 38.5524 323.004 38.5344 322.98C38.5384 322.986 38.5424 322.992 38.5464 322.998C38.5384 322.99 38.5324 322.98 38.5264 322.973C38.5284 322.975 38.5324 322.978 38.5344 322.98C38.5304 322.976 38.5284 322.975 38.5264 322.971L38.5244 322.969C38.5204 322.967 38.5204 322.965 38.5184 322.963C38.5184 322.961 38.5164 322.961 38.5164 322.961C38.5164 322.961 38.5164 322.961 38.5184 322.961C38.5164 322.959 38.5144 322.957 38.5124 322.953C38.5124 322.953 38.5124 322.953 38.5124 322.955C38.5124 322.953 38.5124 322.953 38.5104 322.951C38.5024 322.941 38.4964 322.935 38.4924 322.925C38.4924 322.927 38.4924 322.929 38.4924 322.929C28.5394 309.993 19.8204 296.116 12.5864 281.481C12.2004 280.698 11.8194 279.91 11.4424 279.123C11.3224 278.86 11.0244 278.654 10.7544 278.56C10.0564 277.087 9.37136 275.608 8.70036 274.123C8.56736 273.829 8.24536 273.684 7.93136 273.684C7.92136 273.685 7.91536 273.685 7.90736 273.685ZM46.8074 333.259C46.8034 333.255 46.8014 333.251 46.7974 333.247C46.7914 333.239 46.7834 333.229 46.7774 333.221C46.7884 333.234 46.7974 333.247 46.8074 333.259ZM100.158 439.682C92.3414 433.55 84.9034 426.967 77.8534 419.963C70.3874 412.548 63.4404 404.614 56.9844 396.307C50.7174 388.119 44.9564 379.573 39.7264 370.687C34.3854 361.625 29.6894 352.188 25.5604 342.515C21.4784 332.747 18.0284 322.743 15.2094 312.535C12.3614 302.231 10.2544 291.725 8.78337 281.136C8.63037 279.971 8.48337 278.804 8.34537 277.637C8.60837 278.204 8.87537 278.769 9.14137 279.334C9.13137 279.365 9.12036 279.397 9.11236 279.43C9.01636 279.781 9.08937 280.093 9.24237 280.411C16.3414 295.154 24.8294 309.213 34.6994 322.269C36.4664 324.603 38.2754 326.906 40.1254 329.178C40.3844 329.496 40.6454 329.814 40.9064 330.131C41.0634 330.325 41.2224 330.521 41.3814 330.716C43.5864 333.421 45.8344 336.093 48.1524 338.699C50.0884 340.876 52.0634 343.02 54.0764 345.129C54.1524 345.39 54.2964 345.623 54.4864 345.833C55.1804 346.592 55.8794 347.343 56.6034 348.075C57.1294 348.607 57.6564 349.134 58.1884 349.66C58.1884 349.725 58.1944 349.792 58.2064 349.856C58.2824 350.287 58.3494 350.719 58.4454 351.147C58.5454 351.602 58.7144 352.049 58.8614 352.491C59.0324 352.999 59.2044 353.507 59.3964 354.007C59.7104 354.817 60.0224 355.629 60.3364 356.439C60.7604 357.539 61.1974 358.628 61.6444 359.717C62.7904 362.508 63.9554 365.288 65.1364 368.065C65.5324 368.999 65.9214 369.938 66.3364 370.864C67.0724 372.504 67.8054 374.144 68.5394 375.782C68.9294 376.651 69.3004 377.53 69.7204 378.385C70.4934 379.958 71.2664 381.531 72.0394 383.107C72.4754 383.992 72.8924 384.884 73.3614 385.751C74.2004 387.297 75.0384 388.842 75.8784 390.39C76.4274 391.402 77.0314 392.385 77.6204 393.376C78.2184 394.388 78.8114 395.404 79.4274 396.407C82.2814 401.042 85.1124 405.689 87.8754 410.379C89.3344 412.858 90.7984 415.332 92.2674 417.806C93.6604 420.15 95.1354 422.441 96.6754 424.691C97.9074 426.496 99.1784 428.273 100.443 430.056C101.031 430.884 101.616 431.713 102.197 432.547C102.509 432.998 102.823 433.447 103.137 433.897C103.443 434.338 103.772 434.766 104.104 435.19C104.033 435.257 103.965 435.323 103.896 435.392C103.156 436.126 102.45 436.912 101.785 437.716C101.24 438.369 100.699 439.027 100.158 439.682ZM248.864 490.798C248.729 490.798 248.591 490.798 248.456 490.798C237.82 490.798 227.187 490.043 216.645 488.672C206.107 487.216 195.686 485.104 185.415 482.334C175.042 479.539 164.876 475.998 154.966 471.857C145.182 467.685 135.676 462.901 126.49 457.532C118.234 452.709 110.291 447.361 102.663 441.604C103.114 441.053 103.567 440.502 104.02 439.95C104.377 439.515 104.759 439.097 105.136 438.677C105.809 437.926 106.511 437.198 107.292 436.558C107.67 436.278 108.061 436.015 108.458 435.763C109.412 436.462 110.429 437.124 111.483 437.656C112.729 438.286 114 438.891 115.3 439.416C116.67 440.261 118.112 440.988 119.528 441.753C120.058 442.039 120.581 442.349 121.125 442.61C122.11 443.081 123.094 443.553 124.077 444.024C124.73 444.338 125.374 444.661 126.044 444.932C127.08 445.352 128.115 445.772 129.151 446.191C129.704 446.417 130.253 446.644 130.818 446.842C131.92 447.225 133.023 447.609 134.125 447.993C135.745 448.558 137.421 448.966 139.072 449.429C139.7 449.604 140.337 449.741 140.971 449.888C141.883 450.102 142.795 450.314 143.709 450.528C145.396 450.922 147.089 451.303 148.774 451.709C152.116 452.515 155.439 453.4 158.778 454.218C159.18 454.316 159.59 454.385 159.994 454.467C160.402 454.551 160.81 454.649 161.222 454.718C162.146 454.873 163.07 455.028 163.996 455.181C165.718 455.467 167.452 455.699 169.182 455.942C172.589 456.423 176.024 456.699 179.464 456.766C182.977 456.833 186.49 456.862 190.004 456.994C192.321 457.082 194.635 457.202 196.952 457.288C197.764 457.319 198.462 456.707 198.659 455.954C198.961 455.946 199.261 455.934 199.561 455.923C199.663 456.098 199.8 456.245 199.991 456.355C200.277 456.524 200.626 456.569 200.946 456.48C201.289 456.386 201.589 456.121 201.748 455.793C202.291 455.75 202.833 455.697 203.374 455.63C210.697 460.473 218.288 464.91 226.083 468.939C238.69 475.455 251.864 480.908 265.398 485.183C269.851 486.591 274.351 487.859 278.882 489C268.919 490.194 258.901 490.784 248.864 490.798ZM482.711 312.098C479.937 322.382 476.424 332.457 472.323 342.283C468.223 351.914 463.543 361.271 458.282 370.32C452.915 379.553 446.893 388.392 440.385 396.852C434.079 404.93 427.296 412.611 420.067 419.867C412.688 427.276 404.8 434.173 396.544 440.583C395.512 441.373 394.473 442.154 393.429 442.929C392.705 442.633 391.901 442.501 391.13 442.345C390.263 442.168 389.402 441.957 388.541 441.754C387.411 441.487 386.287 441.195 385.165 440.893C385.206 440.799 385.241 440.699 385.271 440.591C385.436 439.997 385.351 439.347 385.04 438.814C384.738 438.298 384.238 437.914 383.661 437.755C383.463 437.7 383.239 437.671 383.012 437.671C382.786 437.671 382.558 437.704 382.346 437.768C382.441 437.419 382.537 437.07 382.632 436.721C382.802 436.09 382.965 435.457 383.13 434.824C384.425 431.494 385.641 428.133 386.786 424.75C388.149 420.715 389.395 416.643 390.536 412.541C391.415 409.387 392.211 406.211 392.96 403.024C393.393 401.229 393.809 399.43 394.204 397.628C395.893 389.917 397.207 382.12 398.145 374.28C398.253 374.276 398.357 374.245 398.441 374.18C398.629 374.037 398.812 373.903 398.978 373.733C399.117 373.592 399.239 373.439 399.384 373.301C399.606 373.091 399.829 372.879 400.051 372.669C400.547 372.202 401.059 371.747 401.565 371.29C401.759 371.112 401.773 370.806 401.641 370.59C401.698 370.521 401.755 370.451 401.812 370.382C402.791 369.176 403.797 367.985 404.742 366.751C406.766 364.105 408.783 361.455 410.786 358.793C412.408 356.635 414.026 354.474 415.674 352.334C415.664 352.346 415.654 352.357 415.647 352.369C415.649 352.363 415.653 352.359 415.657 352.355C415.68 352.324 415.704 352.292 415.729 352.261C415.735 352.251 415.741 352.243 415.749 352.233C415.741 352.245 415.733 352.255 415.725 352.266C415.75 352.233 415.776 352.199 415.801 352.166C415.803 352.164 415.805 352.16 415.807 352.158C415.815 352.148 415.823 352.138 415.83 352.129C415.828 352.131 415.828 352.131 415.826 352.133C416.862 350.791 417.897 349.451 418.933 348.108C418.933 348.11 418.931 348.112 418.931 348.114C418.933 348.11 418.935 348.108 418.937 348.106C418.937 348.104 418.939 348.104 418.939 348.102L418.937 348.104C418.939 348.102 418.939 348.1 418.941 348.098V348.1C418.947 348.092 418.955 348.082 418.963 348.071C418.973 348.059 418.983 348.047 418.992 348.034C418.992 348.034 418.992 348.034 418.992 348.032L418.994 348.03C418.996 348.03 418.998 348.028 418.998 348.026C418.998 348.024 418.998 348.024 419 348.024C419.002 348.022 419.004 348.02 419.004 348.018V348.016L419.006 348.014C419.008 348.012 419.008 348.012 419.01 348.01C419.012 348.008 419.014 348.006 419.016 348.004C419.02 348 419.022 347.994 419.026 347.99L419.028 347.988V347.986C419.03 347.984 419.032 347.98 419.034 347.978C419.034 347.98 419.032 347.98 419.032 347.982C419.034 347.98 419.036 347.979 419.038 347.976C419.038 347.976 419.038 347.974 419.04 347.974C419.04 347.972 419.04 347.972 419.042 347.97C419.044 347.966 419.046 347.964 419.048 347.96C419.05 347.958 419.05 347.958 419.052 347.956C419.054 347.954 419.054 347.952 419.056 347.95C419.056 347.95 419.058 347.95 419.058 347.948C419.058 347.948 419.058 347.948 419.06 347.946C419.06 347.946 419.06 347.946 419.06 347.944C419.07 347.932 419.078 347.923 419.087 347.911C419.089 347.907 419.093 347.903 419.095 347.901C419.097 347.899 419.099 347.897 419.101 347.895C419.103 347.893 419.103 347.893 419.105 347.891H419.103C419.109 347.883 419.113 347.875 419.121 347.867C419.141 347.842 419.16 347.816 419.182 347.791C419.18 347.791 419.18 347.791 419.18 347.791C420.171 346.518 421.161 345.243 422.148 343.966C422.146 343.968 422.144 343.97 422.144 343.97C422.146 343.966 422.15 343.962 422.152 343.958C422.152 343.96 422.15 343.962 422.15 343.964C422.181 343.923 422.211 343.886 422.242 343.844C422.238 343.848 422.234 343.852 422.232 343.854C422.263 343.813 422.297 343.772 422.328 343.73C423.317 342.455 424.305 341.18 425.29 339.901C425.312 339.874 425.333 339.848 425.353 339.821C425.349 339.825 425.347 339.829 425.345 339.831C425.355 339.817 425.367 339.802 425.378 339.788C425.378 339.786 425.38 339.784 425.382 339.782C425.382 339.784 425.382 339.784 425.382 339.784C425.384 339.782 425.386 339.778 425.388 339.776C425.39 339.774 425.392 339.772 425.392 339.77C425.396 339.766 425.398 339.764 425.4 339.762C425.345 339.833 425.29 339.903 425.237 339.974C426.253 338.656 427.273 337.34 428.289 336.023C428.283 336.031 428.279 336.037 428.273 336.045C428.295 336.016 428.316 335.988 428.34 335.959C428.348 335.947 428.358 335.936 428.368 335.924C428.333 335.969 428.299 336.014 428.264 336.059C432.048 331.2 435.849 326.355 439.549 321.434C441.469 318.878 443.382 316.316 445.304 313.762C447.024 311.479 448.784 309.227 450.516 306.953C452.309 304.597 454.11 302.247 455.885 299.878C457.756 297.383 459.59 294.864 461.391 292.316C462.888 290.196 464.341 288.044 465.871 285.947C466.014 285.702 466.105 285.441 466.144 285.166C467.849 285.28 469.555 285.37 471.262 285.448C474.463 285.591 477.667 285.662 480.87 285.662C481.078 285.662 481.286 285.662 481.494 285.662C481.514 285.662 481.535 285.662 481.557 285.66C482.053 285.658 482.549 285.656 483.046 285.65C484.205 285.642 485.37 285.634 486.528 285.566C486.918 285.556 487.273 285.368 487.497 285.078C487.809 285.07 488.121 285.06 488.431 285.051C487.018 294.165 485.114 303.189 482.711 312.098ZM491.073 255.991C490.987 258.851 490.838 261.707 490.655 264.561C490.296 270.138 489.719 275.701 488.99 281.238C488.882 282.007 488.772 282.776 488.659 283.543C488.257 283.557 487.857 283.569 487.455 283.58C487.231 283.313 486.896 283.143 486.527 283.139C485.44 283.127 484.354 283.157 483.265 283.17C482.676 283.178 482.088 283.182 481.5 283.184C481.498 283.184 481.496 283.184 481.494 283.184C481.268 283.184 481.043 283.186 480.819 283.186C477.698 283.19 474.575 283.151 471.454 283.058C469.73 283.009 468.004 282.938 466.279 282.854C465.681 282.824 465.082 282.793 464.484 282.76C464.331 282.725 464.172 282.707 464.013 282.707C463.939 282.707 463.864 282.711 463.786 282.721C463.78 282.719 463.772 282.719 463.766 282.719C463.478 282.701 463.191 282.688 462.903 282.676C462.738 281.933 462.55 281.193 462.373 280.454C462.308 280.183 462.243 279.912 462.178 279.641C462.186 279.492 462.175 279.341 462.125 279.193C462.061 279.003 461.998 278.812 461.934 278.621C461.742 277.813 461.552 277.003 461.372 276.191C460.733 273.308 460.242 270.395 459.722 267.488C459.587 266.737 459.461 265.981 459.316 265.232C459.163 264.445 459.03 263.653 458.855 262.872C458.669 262.036 458.48 261.201 458.294 260.367C458.121 259.6 457.909 258.841 457.717 258.078C457.378 256.732 456.997 255.391 456.573 254.067C456.108 252.613 455.639 251.156 455.108 249.724C454.549 248.225 453.99 246.731 453.397 245.246C452.801 243.745 452.175 242.258 451.549 240.77C450.407 238.047 449.207 235.341 447.963 232.661C447.316 231.268 446.692 229.862 446.017 228.481C445.593 227.612 445.17 226.741 444.746 225.872C444.493 225.352 444.25 224.826 443.981 224.315C443.277 222.975 442.598 221.622 441.857 220.304C441.211 219.159 440.572 218.009 439.91 216.873C439.824 216.709 439.736 216.545 439.652 216.38C438.995 215.111 438.295 213.865 437.604 212.614C437.284 212.033 436.941 211.464 436.609 210.89C436.293 210.347 435.987 209.794 435.66 209.256C434.923 208.05 434.212 206.82 433.436 205.639C432.638 204.425 431.863 203.195 431.023 202.012C430.148 200.782 429.281 199.55 428.373 198.348C427.921 197.751 427.472 197.151 427.015 196.557C426.86 196.241 426.704 195.924 426.566 195.601C425.964 194.202 425.36 192.804 424.759 191.403C424.584 190.971 424.417 190.535 424.249 190.101C424.127 189.789 423.98 189.538 423.68 189.364C423.635 189.338 423.584 189.324 423.537 189.304C423.807 187.26 424.055 185.214 424.275 183.165C425.066 175.809 425.525 168.42 425.656 161.023C425.923 146.068 424.818 131.092 422.392 116.333C421.961 113.708 421.48 111.094 420.956 108.487C421.129 108.438 421.295 108.361 421.45 108.257C422.282 107.698 423.131 107.172 424.041 106.751C426.772 105.69 429.684 105.254 432.576 104.844C434.946 104.591 437.315 104.442 439.693 104.289C440.839 104.216 441.986 104.132 443.134 104.028C448.711 111.498 453.856 119.271 458.558 127.327C463.742 136.217 468.313 145.456 472.348 154.92C476.416 164.651 479.872 174.614 482.689 184.779C485.508 194.959 487.601 205.332 489.064 215.791C490.455 226.476 491.186 237.231 491.247 248.006C491.263 250.666 491.153 253.33 491.073 255.991Z" fill="#FFFFFF" stroke="#08101D" stroke-width="18" stroke-linejoin="round" paint-order="stroke fill"/>
</svg>

