<svg width="41" height="46" viewBox="0 0 41 46" fill="none" xmlns="http://www.w3.org/2000/svg">
<path d="M31.7645 13.5515C34.3293 12.982 37.6701 10.4362 38.1784 9.18248C38.4766 8.44858 36.9897 7.30185 36.5921 6.83934C35.6824 5.78435 36.0494 5.2645 36.401 4.00692C36.8024 2.57734 35.8506 0.998676 34.5013 0.379443C33.152 -0.239789 31.5389 -0.0448453 30.182 0.559097C28.825 1.16304 27.6668 2.13393 26.5316 3.08954C25.7021 2.56587 24.3796 0.253304 22.2391 1.75552C20.7598 2.79139 20.626 5.04662 20.8171 6.84698C21.2643 11.002 22.2887 13.1578 24.2191 13.7388C26.6577 14.4727 29.3563 14.0866 31.7645 13.5515Z" fill="#FFCA28"/>
<path d="M35.9309 1.59814C35.606 7.19799 30.1438 10.9134 27.5522 12.5494L29.234 13.9943C29.234 13.9943 30.3005 14.0172 31.7607 13.5509C34.2643 12.7558 37.9224 10.5082 38.1746 9.18183C38.5454 7.25151 36.5654 7.67197 36.1182 6.14683C35.885 5.3403 37.2534 3.81515 35.9309 1.59814ZM26.5354 3.09271C26.5354 3.09271 25.5607 2.09506 24.8383 1.64019C24.479 2.31676 24.2229 3.05066 24.0968 3.8075C23.8712 5.13771 24.0968 7.02598 24.6281 8.43263C24.7122 8.65051 25.0256 8.61611 25.06 8.38677C25.5187 5.36323 26.5354 3.09271 26.5354 3.09271Z" fill="#E2A610"/>
<path d="M19.7239 13.0585C19.7239 13.0585 7.80181 14.3466 2.4237 24.6977C-2.95441 35.0489 1.61718 41.3253 6.45633 43.6111C11.2955 45.8969 23.4889 46.7034 31.4204 44.8228C39.3518 42.9422 41.3357 39.0433 40.9649 35.2782C40.4259 29.7816 35.3192 26.4025 35.3192 26.4025C35.3192 26.4025 35.5218 19.6139 30.2546 15.2067C25.5798 11.2925 19.7239 13.0585 19.7239 13.0585Z" fill="#FFCA28"/>
<path d="M24.6169 30.4774C22.0597 27.2513 19.04 26.8193 18.073 25.6611C17.5455 25.0304 17.2359 24.3921 17.3544 23.6008C17.4805 22.7599 18.4552 22.1789 19.212 22.0375C20.095 21.8693 22.2011 21.9572 23.9709 23.6429C24.3914 24.0404 24.2385 24.6597 24.227 25.2139C24.1964 26.4027 25.8974 27.5571 27.2735 26.5632C28.6533 25.5656 27.5945 23.3447 26.7039 22.2668C26.0312 21.4526 23.5925 19.6599 20.5613 19.3771C19.7089 19.2968 16.2803 18.7884 14.3003 22.5535C13.7307 23.6352 13.5205 26.2498 16.502 28.4591C17.125 28.9217 20.3588 30.5653 21.257 31.6318C22.8127 33.478 21.7463 35.1025 20.5308 35.3166C17.2167 35.8976 15.34 34.1049 14.9921 33.1225C14.7437 32.423 15.0036 31.6662 14.6825 31.0087C14.3538 30.3321 13.681 30.0646 12.9701 30.2901C10.6384 31.0316 11.38 33.5812 12.412 34.984C13.5167 36.4862 14.8736 37.3921 16.3988 37.8891C22.0903 39.7429 24.8271 36.815 25.3049 34.6706C25.6566 33.0996 25.6184 31.7388 24.6169 30.4774Z" fill="#6B4B46"/>
<path d="M23.2407 17.1973C18.3977 27.5407 17.5645 40.602 17.5645 40.602" stroke="#6B4B46" stroke-width="0.625" stroke-miterlimit="10"/>
<path d="M27.2588 10.6883C30.4849 11.7395 31.1997 14.656 30.9666 15.451C30.6875 16.3837 27.1136 12.7524 21.8005 12.9703C19.9428 13.0467 20.4817 11.9077 21.3418 11.2502C22.477 10.3825 24.3844 9.75563 27.2588 10.6883Z" fill="#6D4C41"/>
<path d="M27.2588 10.6883C30.4849 11.7395 31.1997 14.656 30.9666 15.451C30.6875 16.3837 27.1136 12.7524 21.8005 12.9703C19.9428 13.0467 20.4817 11.9077 21.3418 11.2502C22.477 10.3825 24.3844 9.75563 27.2588 10.6883Z" fill="#6B4B46"/>
<path d="M32.9225 20.9701C33.3277 20.691 34.6885 21.1727 35.0707 23.8369C35.258 25.1403 35.3154 26.4017 35.3154 26.4017C35.3154 26.4017 33.7099 24.9607 33.1786 23.9478C32.5097 22.6672 32.2498 21.4288 32.9225 20.9701Z" fill="#E2A610"/>
</svg>
