<svg width="17" height="17" viewBox="0 0 17 17" fill="none" xmlns="http://www.w3.org/2000/svg">
<path d="M1.4875 10.6222C1.48807 10.623 1.48862 10.6237 1.4892 10.6244C1.48913 10.6243 1.48901 10.6242 1.48894 10.6242C1.48933 10.6246 1.48968 10.6251 1.49006 10.6256C1.49 10.6255 1.48987 10.6253 1.48981 10.6252C1.53069 10.678 1.57215 10.7303 1.61415 10.7822C1.7535 10.951 1.9 11.1137 2.05277 11.2705C2.06015 11.2729 2.06715 11.277 2.07306 11.2827C2.08848 11.2976 2.10367 11.3126 2.11895 11.3276C2.12075 11.3263 2.12252 11.3248 2.12451 11.3236C2.13334 11.3184 2.14346 11.3158 2.15361 11.3158C2.15868 11.3158 2.16379 11.3165 2.16873 11.3178C2.1819 11.3215 2.19722 11.3314 2.20306 11.3442C2.21282 11.3655 2.22249 11.3869 2.23228 11.4082C2.23463 11.4066 2.23701 11.4049 2.23932 11.4033C2.24324 11.4006 2.24712 11.3978 2.25104 11.3951C2.25255 11.3859 2.25765 11.3771 2.26604 11.3733C2.28187 11.3641 2.29799 11.3553 2.31418 11.3467C2.32095 11.3409 2.32782 11.3353 2.3347 11.3296C2.34623 11.32 2.35682 11.3091 2.36771 11.2988C2.39436 11.2735 2.41948 11.2469 2.44462 11.2201C2.45191 11.2124 2.462 11.2086 2.47221 11.2086C2.48261 11.2086 2.49315 11.2126 2.50069 11.2201C2.5058 11.2252 2.50914 11.2313 2.51084 11.2378C2.5392 11.2219 2.56759 11.206 2.59607 11.1903C2.64151 11.1653 2.68705 11.1405 2.73259 11.1156C2.77707 11.0913 2.82103 11.0661 2.86506 11.0411C2.90902 11.0162 2.95135 10.9883 2.99419 10.9614C3.00925 10.952 3.02374 10.9418 3.03841 10.9317C3.06324 10.9146 3.088 10.8975 3.11282 10.8804C3.13228 10.867 3.15107 10.8525 3.17008 10.8384C3.18681 10.8261 3.20357 10.8139 3.22034 10.8016C3.26109 10.7718 3.30152 10.7414 3.34298 10.7125C3.38836 10.681 3.43364 10.6498 3.47974 10.6194C3.5176 10.5945 3.55608 10.5704 3.59433 10.546C3.61725 10.5312 3.64083 10.5172 3.66324 10.5018C3.68559 10.4865 3.70791 10.4712 3.7302 10.4559C3.76585 10.4314 3.79998 10.4047 3.83431 10.3782C3.83425 10.3783 3.83425 10.3783 3.83425 10.3783C3.88017 10.3422 3.9259 10.3058 3.97289 10.2711C4.01611 10.2393 4.06139 10.2104 4.10561 10.1801C4.11091 10.1764 4.11721 10.174 4.12382 10.1727C4.15488 10.1498 4.18587 10.1268 4.21686 10.1038C4.21422 10.0767 4.21172 10.0497 4.20937 10.0226C4.20741 9.99992 4.20558 9.97725 4.20382 9.95451C4.2026 9.94684 4.20147 9.93913 4.20029 9.93146C4.19695 9.90872 4.19643 9.8854 4.19518 9.86247C4.19274 9.81902 4.19072 9.77548 4.18876 9.73196C4.18529 9.65399 4.18275 9.57592 4.18163 9.49788C4.17148 8.96624 4.21438 8.43362 4.31069 7.91058C4.36021 7.64147 4.42345 7.37476 4.50081 7.11232C4.53947 6.98117 4.58119 6.85095 4.62673 6.72207C4.63029 6.71189 4.63395 6.70168 4.63761 6.69147C4.61022 6.67162 4.58296 6.65178 4.55604 6.63132C4.46298 6.5606 4.38067 6.47637 4.30292 6.38944C4.22254 6.29955 4.14322 6.20883 4.06518 6.11685C4.049 6.09778 4.03348 6.07806 4.01775 6.05853C3.99967 6.03612 3.98146 6.01386 3.96396 5.991C3.92642 5.94173 3.88888 5.89247 3.85227 5.84247C3.77994 5.74369 3.70997 5.64323 3.63967 5.54301C3.60614 5.49519 3.57194 5.44788 3.53793 5.40045C3.50524 5.35475 3.47094 5.31024 3.43727 5.26532C3.37214 5.17851 3.30525 5.09296 3.24067 5.00564C3.20255 4.95419 3.16488 4.90252 3.12766 4.85037C3.09789 4.80856 3.06834 4.76649 3.03822 4.72477C3.00142 4.67387 2.96465 4.62297 2.92778 4.57207C2.92515 4.56841 2.92248 4.56478 2.91981 4.56112C2.91535 4.56414 2.91089 4.56716 2.90642 4.57021C2.87726 4.59005 2.8482 4.61003 2.8191 4.62994C2.78988 4.64998 2.76053 4.66989 2.73118 4.68974C2.71534 4.70043 2.69909 4.71045 2.6831 4.72079C2.6762 4.72525 2.66932 4.72975 2.66232 4.73409C2.65128 4.74083 2.64033 4.74777 2.62886 4.7538C2.61772 4.75981 2.606 4.76427 2.59427 4.76899C2.58994 4.77069 2.5839 4.76938 2.58005 4.7671C2.57729 4.76546 2.57501 4.76324 2.57337 4.76048C2.5699 4.75448 2.57041 4.7478 2.57337 4.74182C2.57571 4.7371 2.57809 4.73274 2.58175 4.72888C2.51688 4.77002 2.45259 4.81209 2.38903 4.85525C2.25663 4.94501 2.12724 5.03894 2.00049 5.13651C1.80668 5.28645 1.6199 5.44531 1.44093 5.61269C1.35808 5.69022 1.27724 5.77018 1.19789 5.8513C1.11851 5.93249 1.04056 6.01528 0.964486 6.09961C0.926816 6.14135 0.889693 6.18365 0.852472 6.22572C0.814995 6.26804 0.77739 6.31018 0.741037 6.35347C0.718428 6.38041 0.695916 6.40752 0.673629 6.43478C0.613351 6.68765 0.56534 6.94321 0.529629 7.20093C0.484284 7.54721 0.461965 7.89568 0.462671 8.24492C0.463056 8.42412 0.468484 8.60322 0.481458 8.782C0.487624 8.86777 0.495106 8.95352 0.503937 9.03913C0.504194 9.03913 0.504387 9.03913 0.504708 9.0391C0.514792 9.0391 0.525133 9.04376 0.529404 9.0532C0.550952 9.10089 0.572952 9.14839 0.595367 9.19569C0.604038 9.19871 0.613608 9.20532 0.617462 9.21377C0.629569 9.23904 0.641804 9.26435 0.6542 9.28949C0.886513 9.75948 1.16652 10.2051 1.48615 10.6206C1.48615 10.6206 1.48615 10.6205 1.48615 10.6204C1.48628 10.6208 1.48647 10.6209 1.48672 10.6213C1.48679 10.6213 1.48679 10.6213 1.48679 10.6214C1.48679 10.6213 1.48679 10.6213 1.48679 10.6213C1.48685 10.6215 1.48692 10.6215 1.48698 10.6216C1.48692 10.6216 1.48692 10.6216 1.48692 10.6216C1.48692 10.6216 1.48698 10.6216 1.48698 10.6217C1.48705 10.6217 1.48705 10.6218 1.48717 10.6218L1.48724 10.6219C1.4873 10.622 1.48737 10.6221 1.4875 10.6222ZM1.4875 10.6222C1.48762 10.6224 1.48775 10.6226 1.48788 10.6228C1.48762 10.6225 1.48743 10.6222 1.48724 10.622C1.4873 10.622 1.48743 10.6221 1.4875 10.6222ZM16.2235 7.94115C16.2188 7.81084 16.2101 7.68061 16.199 7.55065C16.1867 7.40723 16.1696 7.26403 16.1488 7.12141C16.1211 6.92722 16.0866 6.73392 16.0455 6.54223C15.9928 6.29688 15.927 6.05436 15.8513 5.81511C15.7749 5.57384 15.6847 5.33738 15.5859 5.10442C15.3943 4.65226 15.1565 4.22007 14.8842 3.81154C14.8132 3.70509 14.7397 3.60033 14.6637 3.49747C14.6623 3.47945 14.6545 3.46243 14.6417 3.44965C14.6347 3.44265 14.6251 3.4361 14.6147 3.43189C14.4107 3.16165 14.1897 2.90426 13.9539 2.66148C13.6104 2.30784 13.2318 1.98885 12.8296 1.7039C12.0298 1.13715 11.1213 0.724838 10.171 0.486681C9.68607 0.365161 9.18859 0.292519 8.68983 0.263167C8.53909 0.254335 8.38809 0.25 8.23715 0.25C7.88528 0.25 7.53343 0.273732 7.18471 0.319784C6.9382 0.352347 6.69362 0.396055 6.45122 0.451259C6.20976 0.506174 5.97134 0.573967 5.73624 0.65165C5.2658 0.80705 4.81068 1.0094 4.37707 1.24871C3.93448 1.49301 3.51789 1.78277 3.12913 2.10549C2.74065 2.42801 2.38518 2.78961 2.06484 3.17967C1.74935 3.56375 1.47019 3.9768 1.23049 4.41208C0.991623 4.84591 0.795566 5.30382 0.641194 5.77426C0.561871 6.01572 0.496005 6.26146 0.440673 6.50945C0.434314 6.538 0.428148 6.56651 0.422143 6.59506C0.418867 6.59949 0.415592 6.60396 0.412316 6.60839C0.401911 6.67137 0.386336 6.73325 0.371178 6.79552C0.367774 6.80946 0.364498 6.82343 0.361223 6.83743C0.367549 6.82911 0.373876 6.82076 0.380202 6.81241C0.354126 6.95888 0.332192 7.10603 0.313437 7.25356C0.281741 7.50277 0.263307 7.75329 0.254347 8.00426C0.245452 8.25346 0.25075 8.50293 0.265298 8.75181C0.294522 9.2508 0.373009 9.74738 0.494978 10.232C0.616177 10.7136 0.786896 11.1822 0.995348 11.6328C1.41424 12.5382 2.01195 13.3604 2.7331 14.0487C2.92007 14.2272 3.11629 14.3961 3.32008 14.5554C3.31761 14.5587 3.31517 14.562 3.31276 14.5654C3.30672 14.574 3.30326 14.5841 3.30066 14.5941C3.2941 14.6193 3.30865 14.6506 3.33579 14.6561C3.34202 14.6573 3.34825 14.6585 3.35464 14.6583C3.3768 14.6573 3.39642 14.6439 3.40246 14.6219C3.40265 14.6211 3.40284 14.6202 3.40303 14.6194C3.56038 14.7391 3.72201 14.8531 3.88721 14.9613C4.09778 15.0992 4.31561 15.2259 4.53832 15.3431C4.76087 15.4603 4.98997 15.5644 5.22244 15.6602C6.13988 16.0387 7.12976 16.2334 8.12122 16.2491C8.62718 16.2571 9.13323 16.2138 9.63167 16.1277C10.1243 16.0425 10.6079 15.9078 11.0754 15.7307C11.5373 15.5559 11.9819 15.3371 12.4036 15.0801C12.8232 14.8244 13.218 14.5272 13.5841 14.1997C14.3097 13.5506 14.912 12.7641 15.3568 11.8987C15.5813 11.462 15.7632 11.0032 15.9038 10.5328C16.0484 10.0492 16.1422 9.55142 16.1931 9.04947C16.2184 8.80091 16.2308 8.55074 16.2298 8.30093C16.2294 8.18089 16.2278 8.06104 16.2235 7.94115ZM14.377 3.4553C14.377 3.4553 14.377 3.4553 14.3769 3.4553C14.3282 3.39352 14.2787 3.33253 14.2286 3.27254C14.279 3.33279 14.3284 3.39371 14.377 3.4553ZM13.8062 3.55945C13.7831 3.57001 13.7611 3.58231 13.7396 3.5958C13.7371 3.58447 13.7346 3.57319 13.7321 3.56192C13.7231 3.52223 13.7138 3.48254 13.7043 3.443C13.7386 3.48144 13.7732 3.51969 13.8062 3.55945ZM13.6394 3.16949C13.6339 3.16319 13.6282 3.15696 13.6225 3.15073C13.6224 3.15048 13.6223 3.15022 13.6222 3.15003C13.628 3.15651 13.6337 3.163 13.6394 3.16949ZM11.2304 1.57936C11.2331 1.58138 11.2357 1.58334 11.2384 1.58533C11.2361 1.58527 11.2339 1.58521 11.2317 1.58521C11.2311 1.58299 11.2305 1.58087 11.2297 1.57878C11.23 1.57898 11.2302 1.57917 11.2304 1.57936ZM11.2101 1.55055C11.2101 1.55049 11.21 1.55043 11.2099 1.55036C11.2097 1.54847 11.2095 1.54657 11.2094 1.54468C11.2096 1.54667 11.2098 1.54863 11.2101 1.55055ZM11.2675 1.68482C11.2827 1.68527 11.2979 1.68575 11.3132 1.68627C11.3271 1.68678 11.3408 1.68691 11.3547 1.68698C11.3614 1.68698 11.3681 1.68698 11.3749 1.68704C11.3893 1.6977 11.4038 1.7084 11.4182 1.71903C11.4406 1.73553 11.4641 1.75066 11.487 1.76646C11.5078 1.78075 11.5284 1.79542 11.5496 1.80911C11.5794 1.82837 11.6093 1.84767 11.6391 1.86694C11.6649 1.88364 11.6919 1.8987 11.7182 1.9145C11.7642 1.94215 11.8116 1.96775 11.8583 1.99418C11.9128 2.02498 11.9665 2.05667 12.0202 2.08879C12.0477 2.10529 12.0743 2.12389 12.1012 2.14139C12.126 2.15745 12.15 2.17479 12.1743 2.19158C12.2213 2.22408 12.2677 2.25742 12.3147 2.28992C12.3609 2.32184 12.4076 2.35299 12.4537 2.38504C12.5083 2.42297 12.5625 2.46118 12.6164 2.50014C12.6629 2.53379 12.7089 2.56812 12.7554 2.60174C12.8499 2.67008 12.9466 2.73534 13.0405 2.80464C13.0732 2.82876 13.1055 2.85333 13.1378 2.87796C13.2281 2.95053 13.3159 3.02581 13.3987 3.10699C13.4431 3.15044 13.4865 3.19457 13.5291 3.23991C13.5443 3.2561 13.559 3.27286 13.5735 3.28988C13.5742 3.29265 13.5749 3.29547 13.5757 3.29827C13.5873 3.34274 13.5984 3.38729 13.6093 3.43186C13.6319 3.52509 13.6529 3.61876 13.6724 3.71276C13.71 3.89494 13.7412 4.07832 13.7663 4.26262C13.7664 4.26381 13.7666 4.26503 13.7668 4.26622C13.7671 4.26817 13.7673 4.27007 13.7675 4.272C13.8299 4.74237 13.85 5.21798 13.8282 5.69195C13.8186 5.90166 13.8006 6.11085 13.7743 6.31917C13.7458 6.32829 13.7175 6.33731 13.6886 6.34486C13.6616 6.35186 13.6344 6.35809 13.6073 6.36445C13.5509 6.37768 13.4952 6.39316 13.4399 6.41018C13.3861 6.42682 13.3325 6.44445 13.2784 6.46018C13.2228 6.47637 13.167 6.49217 13.1111 6.50755C12.9968 6.53886 12.8822 6.56992 12.77 6.60845C12.7362 6.62011 12.7024 6.6317 12.6686 6.64336C12.6409 6.65287 12.6136 6.66388 12.5861 6.67409C12.5281 6.69577 12.4702 6.7178 12.4123 6.73986C12.3598 6.7599 12.307 6.77904 12.2541 6.79812C12.202 6.81694 12.15 6.83611 12.0973 6.8531C12.0395 6.87176 11.982 6.89154 11.9238 6.90866C11.8671 6.92529 11.8104 6.94193 11.7537 6.95863C11.6842 6.97911 11.6147 6.99957 11.5453 7.02006C11.4873 7.03714 11.4298 7.05622 11.3722 7.0743C11.2551 7.11097 11.1391 7.15083 11.0228 7.18994C10.9905 7.20077 10.9584 7.21188 10.9262 7.22302C10.9268 7.21711 10.9273 7.21117 10.9281 7.20533C10.9292 7.19813 10.9308 7.1911 10.9326 7.18403C10.9376 7.16483 10.9296 7.14421 10.9123 7.13416C10.9057 7.13024 10.8978 7.12838 10.8899 7.12838C10.8745 7.12838 10.8589 7.13567 10.8519 7.15006C10.8454 7.16329 10.8398 7.17678 10.8354 7.19087C10.8337 7.19617 10.8327 7.2017 10.8314 7.20712C10.8288 7.21782 10.8272 7.2288 10.8254 7.23962C10.821 7.26596 10.8201 7.29303 10.8187 7.31968C10.8182 7.32762 10.8178 7.33561 10.8176 7.34354C10.8175 7.34335 10.8173 7.34322 10.8172 7.34303C10.7448 7.25982 10.6708 7.17835 10.595 7.09848C10.4757 6.97218 10.352 6.85011 10.2247 6.73187C10.0854 6.60254 9.94106 6.47865 9.79259 6.35989C9.75441 6.32922 9.716 6.29884 9.6773 6.26888C9.46917 6.10751 9.2533 5.95599 9.0296 5.81697C8.81157 5.68142 8.58751 5.5555 8.35713 5.44217C8.26416 5.39644 8.17038 5.35238 8.07587 5.30999C8.076 5.30979 8.07613 5.3096 8.07626 5.30938C8.08856 5.28789 8.09007 5.26111 8.09302 5.23718C8.09479 5.22315 8.09517 5.20889 8.09549 5.19479C8.09607 5.16929 8.097 5.14376 8.09787 5.11827C8.09977 5.06239 8.09874 5.00644 8.09617 4.95057C8.09074 4.83309 8.08339 4.71536 8.06858 4.59863C8.06158 4.54365 8.0541 4.48883 8.04492 4.43414C8.03583 4.38032 8.02712 4.32643 8.01877 4.27241C8.01521 4.24451 8.01171 4.21663 8.00814 4.18869C8.00432 4.15879 8.00265 4.12848 8.00005 4.09845C8.00365 4.02401 8.00856 3.94964 8.01437 3.87526C8.02362 3.75676 8.03496 3.63842 8.0453 3.51998C8.05612 3.39506 8.06553 3.27007 8.07411 3.14499C8.07671 3.10674 8.07886 3.06846 8.08085 3.03015C8.0823 3.01855 8.0839 3.00699 8.08531 2.9954C8.09684 2.90034 8.10384 2.80477 8.1112 2.70942C8.1147 2.6643 8.11903 2.61928 8.12395 2.57435C8.12764 2.55951 8.13133 2.54471 8.1349 2.52991C8.14415 2.49153 8.15336 2.45318 8.16261 2.41481C8.17382 2.36802 8.18667 2.32158 8.19909 2.27502C8.20484 2.2535 8.19463 2.23096 8.17568 2.22071C8.22215 2.20247 8.26875 2.18458 8.3156 2.16727C8.43404 2.12344 8.55367 2.08268 8.67409 2.04463C8.91498 1.96865 9.15966 1.90464 9.40671 1.85217C9.59978 1.81116 9.79442 1.77763 9.99003 1.7512C10.2312 1.71912 10.4738 1.69809 10.7169 1.68797C10.8391 1.68286 10.9615 1.68065 11.0839 1.68136C11.145 1.68177 11.2063 1.68299 11.2675 1.68482ZM14.9795 9.31926C14.9795 9.31926 14.9795 9.31926 14.9794 9.31926L14.9777 9.3112C14.9783 9.3139 14.9789 9.31653 14.9795 9.31926ZM13.7982 6.67422C13.7965 6.68293 13.795 6.69166 13.7933 6.70049C13.7949 6.69166 13.7965 6.6828 13.7981 6.67397C13.7981 6.67409 13.7982 6.67416 13.7982 6.67422ZM13.0516 12.1874C13.0492 12.1905 13.0468 12.1936 13.0444 12.1967C13.0444 12.1966 13.0444 12.1966 13.0444 12.1965C13.0468 12.1935 13.0492 12.1904 13.0516 12.1874ZM9.18635 15.8174C9.19412 15.8162 9.20189 15.8149 9.20969 15.8137C9.20773 15.8163 9.206 15.8191 9.20443 15.8219C9.19842 15.8204 9.19235 15.819 9.18635 15.8174ZM6.91151 14.7995C6.90943 14.7919 6.90541 14.7849 6.90027 14.7789C6.90037 14.7626 6.89648 14.7463 6.88781 14.732C6.87725 14.7145 6.86607 14.7002 6.84838 14.6894C6.83383 14.6804 6.81928 14.6744 6.80252 14.6714C6.78556 14.6685 6.76918 14.6673 6.75213 14.6668C6.74369 14.6665 6.73524 14.6662 6.72679 14.6658C6.72862 14.6499 6.73036 14.634 6.73232 14.6181C6.74002 14.5625 6.74947 14.5072 6.76048 14.452C6.77169 14.396 6.78447 14.3404 6.79639 14.2846C6.82037 14.1713 6.8391 14.057 6.86084 13.9433C6.88357 13.8244 6.90715 13.7058 6.93782 13.5886C6.968 13.4733 7.0022 13.359 7.03885 13.2456C7.07533 13.1326 7.11727 13.0216 7.15256 12.9082C7.1699 12.8526 7.18487 12.7962 7.19999 12.7399C7.21544 12.6827 7.22488 12.6238 7.23513 12.5654C7.23949 12.5404 7.24338 12.5153 7.24711 12.4902C7.25385 12.4943 7.26053 12.4985 7.26698 12.5031C7.27713 12.5091 7.28808 12.512 7.29987 12.512C7.31708 12.512 7.33375 12.5052 7.34592 12.493C7.37042 12.4685 7.3718 12.4252 7.34592 12.4009C7.32055 12.3771 7.29068 12.3591 7.2612 12.3409C7.24219 12.3293 7.22321 12.3178 7.2042 12.3062C7.20375 12.3052 7.20324 12.3041 7.20269 12.3031C7.2006 12.2995 7.19778 12.2967 7.19418 12.2946C7.19046 12.2924 7.18673 12.2914 7.18304 12.2914C7.18211 12.2914 7.18114 12.2915 7.18021 12.2916C7.15683 12.2774 7.13345 12.2631 7.11011 12.2489C7.36162 12.2108 7.61134 12.1599 7.85814 12.0983C8.14055 12.0277 8.41892 11.9413 8.69166 11.8397C8.96781 11.7368 9.23818 11.6172 9.501 11.4836C9.83832 11.3123 10.1636 11.1172 10.4737 10.9005C10.4749 10.9139 10.4762 10.9273 10.4776 10.9407C10.4785 10.9495 10.4805 10.9568 10.4869 10.9632C10.4928 10.9691 10.501 10.9725 10.5094 10.9725C10.5255 10.9725 10.543 10.9579 10.5413 10.9407C10.5397 10.9254 10.5384 10.9101 10.5371 10.8948C10.5398 10.8956 10.5424 10.8965 10.5451 10.8973C10.5777 10.9077 10.6094 10.9211 10.641 10.9339C10.693 10.9565 10.7451 10.979 10.7965 11.0027C10.8571 11.0306 10.9176 11.0585 10.9782 11.0865C10.999 11.0961 11.0197 11.1057 11.0405 11.1153C11.0415 11.1158 11.0426 11.1163 11.0436 11.1167C11.1346 11.1588 11.2256 11.201 11.3161 11.2439C11.3443 11.2573 11.3717 11.2728 11.3994 11.2872C11.4204 11.2981 11.4412 11.3089 11.4617 11.3207C11.5179 11.3532 11.574 11.3855 11.6295 11.4188C11.74 11.4852 11.8503 11.5517 11.9598 11.6195C11.9849 11.635 12.0091 11.6519 12.0337 11.6681C12.0536 11.6813 12.0733 11.6947 12.0929 11.7085C12.1386 11.7406 12.1834 11.7734 12.2283 11.8067C12.2512 11.825 12.2742 11.8433 12.2972 11.8615C12.3201 11.8798 12.3421 11.8993 12.3644 11.9182C12.4116 11.958 12.4579 11.9989 12.5055 12.0382C12.5536 12.0779 12.603 12.1168 12.6541 12.1527C12.6781 12.1696 12.7021 12.1868 12.7271 12.2023C12.7517 12.2176 12.7766 12.2334 12.8031 12.2451C12.8044 12.2457 12.8056 12.2462 12.8069 12.2467C12.8064 12.2549 12.806 12.2631 12.8054 12.2712C12.8039 12.2928 12.8028 12.3144 12.8009 12.336C12.797 12.3818 12.7927 12.4275 12.7887 12.4732C12.7834 12.533 12.7789 12.5929 12.7735 12.6527C12.7709 12.683 12.7691 12.7137 12.7654 12.744C12.7619 12.7719 12.7584 12.7998 12.7549 12.8277C12.7476 12.8692 12.7411 12.9108 12.7323 12.952C12.7223 12.9996 12.7119 13.0471 12.7012 13.0945C12.6806 13.1856 12.6619 13.2771 12.6437 13.3688C12.6277 13.4497 12.6127 13.5307 12.5931 13.6108C12.5817 13.6575 12.5701 13.7041 12.5579 13.7506C12.5456 13.7974 12.5328 13.8441 12.5199 13.8907C12.4977 13.971 12.4736 14.0507 12.45 14.1305C12.4234 14.2201 12.397 14.3097 12.3674 14.3984C12.3645 14.407 12.3612 14.4153 12.3589 14.4239C12.0198 14.656 11.664 14.8634 11.2943 15.0428C11.1815 15.0969 11.0674 15.1484 10.9522 15.1972C10.9556 15.1958 10.959 15.1943 10.9624 15.193C10.958 15.1949 10.9536 15.1967 10.9491 15.1985C10.9481 15.199 10.947 15.1994 10.946 15.1999C10.9469 15.1994 10.948 15.199 10.9489 15.1986C10.4291 15.4168 9.88511 15.5783 9.33147 15.684C9.32366 15.6855 9.31618 15.6897 9.30976 15.6952C9.30652 15.6965 9.30334 15.6981 9.30029 15.6999C9.22864 15.7129 9.15674 15.7248 9.08474 15.7354C9.07308 15.7371 9.06149 15.7479 9.05583 15.7577C9.05172 15.7646 9.04954 15.7725 9.04928 15.7805C8.72493 15.6902 8.40636 15.5792 8.09614 15.4485C7.6844 15.2735 7.28882 15.0624 6.91299 14.82C6.91379 14.8132 6.91341 14.8062 6.91151 14.7995ZM2.27451 11.4812H2.27458C2.2759 11.4825 2.27721 11.4837 2.27863 11.4851C2.27721 11.4838 2.2759 11.4825 2.27451 11.4812ZM2.39722 11.3807C2.39873 11.3793 2.40024 11.378 2.40175 11.3766C2.40188 11.3765 2.40207 11.3765 2.4022 11.3764C2.4005 11.3778 2.39886 11.3793 2.39722 11.3807ZM3.98836 5.83765C3.98743 5.8364 3.98641 5.83515 3.98547 5.83386L3.98496 5.83316C3.98612 5.8347 3.98724 5.83614 3.98836 5.83765ZM3.98319 5.83075L3.98239 5.82962C3.98345 5.831 3.98454 5.83232 3.98554 5.83373C3.98477 5.83267 3.98397 5.83174 3.98319 5.83075ZM3.2511 4.87651L3.25004 4.875C3.26032 4.88836 3.2705 4.90159 3.28052 4.91457C3.27076 4.90198 3.26099 4.88936 3.25123 4.87677C3.25187 4.87754 3.25242 4.87834 3.25306 4.87911C3.25242 4.87821 3.25175 4.87738 3.2511 4.87651ZM4.80772 6.26503C4.80641 6.2666 4.80515 6.2683 4.80406 6.27013C4.80406 6.27013 4.804 6.27013 4.80393 6.27013C4.80509 6.2683 4.80634 6.2666 4.80772 6.26503ZM7.72641 2.29628C7.73826 2.29962 7.7502 2.30295 7.76212 2.30617C7.76205 2.30617 7.76199 2.30623 7.76199 2.30623C7.75011 2.30295 7.73819 2.29962 7.72641 2.29628ZM5.00529 1.97937C4.99684 1.98605 4.98859 1.9928 4.98046 1.99973C4.98865 1.99273 4.99691 1.98593 5.00529 1.97928C5.00529 1.97928 5.00529 1.97931 5.00529 1.97937ZM3.61311 3.5757L3.61321 3.5756C3.61314 3.57563 3.61311 3.5757 3.61311 3.5757ZM3.0228 4.57194L3.03661 4.5906C3.03202 4.58443 3.02736 4.57827 3.02268 4.57207C3.02274 4.57207 3.02274 4.57201 3.0228 4.57194ZM4.70721 6.73935C4.71809 6.74622 4.72914 6.75284 4.74041 6.75913C4.75088 6.76495 4.76241 6.76784 4.77381 6.76784C4.7907 6.76784 4.8074 6.76154 4.82005 6.74889C4.83235 6.73662 4.83926 6.71979 4.83926 6.70239C4.83926 6.68733 4.83338 6.66998 4.82246 6.65874C4.82908 6.65422 4.83428 6.64831 4.83794 6.64166C4.84693 6.63517 4.85593 6.62869 4.86495 6.62223C4.88926 6.60479 4.91486 6.58877 4.93971 6.57213C4.96026 6.55832 4.98111 6.54506 5.00182 6.53157C5.08869 6.47505 5.17536 6.41837 5.2613 6.36047C5.35559 6.29698 5.44971 6.2333 5.54529 6.17167C5.54644 6.17093 5.54763 6.17026 5.54875 6.16952C5.55344 6.1673 5.5581 6.16493 5.56282 6.16277C5.6001 6.14569 5.63736 6.12857 5.67471 6.11168C5.84449 6.03477 6.01222 5.95362 6.18275 5.87853C6.31114 5.82516 6.43998 5.77291 6.566 5.71405C6.62615 5.68601 6.68556 5.65672 6.74529 5.62775C6.77362 5.61398 6.80178 5.59975 6.8303 5.5863C6.89687 5.55893 6.96325 5.53112 7.02899 5.5019C7.03124 5.5009 7.03345 5.49991 7.03567 5.49891C7.07295 5.48581 7.11017 5.47277 7.14768 5.46057C7.2219 5.43645 7.29647 5.41275 7.37136 5.39085C7.44904 5.36805 7.52727 5.34839 7.60608 5.3298C7.66886 5.31503 7.73161 5.30151 7.79513 5.29078C7.81167 5.29759 7.82827 5.30433 7.84475 5.31127C8.31734 5.5115 8.76928 5.75839 9.19431 6.04604C9.33327 6.14017 9.46933 6.23869 9.60232 6.34117C9.63344 6.36522 9.66443 6.3896 9.69516 6.41416C9.85535 6.54281 10.0105 6.67747 10.1606 6.8179C10.2345 6.88701 10.307 6.95763 10.3781 7.02963C10.3793 7.03088 10.3806 7.03223 10.3819 7.03348C10.3851 7.03682 10.3883 7.0401 10.3916 7.04337C10.3945 7.04633 10.3974 7.04935 10.4003 7.05233C10.402 7.05397 10.4037 7.05567 10.4053 7.05738C10.5185 7.17315 10.6282 7.29235 10.7343 7.41474C10.7619 7.44653 10.7892 7.47855 10.8164 7.51079C10.8163 7.58279 10.8163 7.65473 10.816 7.72673C10.8157 7.81453 10.8144 7.90243 10.812 7.99022C10.8096 8.0761 10.8051 8.16207 10.7963 8.24755C10.7938 8.27113 10.7914 8.29467 10.789 8.31817C10.784 8.35533 10.7797 8.39261 10.7733 8.42955C10.7658 8.47364 10.7589 8.51792 10.7505 8.56189C10.7332 8.65078 10.7151 8.73961 10.6988 8.82866C10.6905 8.87368 10.6815 8.91861 10.6741 8.96379C10.6666 9.00882 10.6583 9.05387 10.6518 9.09909C10.6447 9.14778 10.6377 9.19649 10.6307 9.24524C10.6234 9.29688 10.6178 9.34894 10.6114 9.40071C10.6009 9.48542 10.5931 9.57059 10.5851 9.6556C10.577 9.74018 10.5685 9.82474 10.5585 9.90914C10.5479 9.99896 10.5373 10.0888 10.5266 10.1786C10.5155 10.2722 10.5038 10.3657 10.4938 10.4593C10.4899 10.4958 10.4857 10.5322 10.4821 10.5686C10.4797 10.5936 10.4773 10.6186 10.4749 10.6436C10.4732 10.6608 10.4704 10.6784 10.4698 10.6958C10.4691 10.7175 10.4683 10.7393 10.4675 10.761C10.4674 10.7646 10.4673 10.7682 10.4673 10.7718C10.4502 10.784 10.4331 10.7961 10.4159 10.8082C10.4032 10.8082 10.3907 10.8091 10.3782 10.811C10.3581 10.8141 10.3386 10.8282 10.3276 10.8448C10.3217 10.8536 10.3171 10.8624 10.3161 10.8732C10.3159 10.8745 10.3158 10.876 10.3158 10.8774C10.2687 10.9095 10.2212 10.941 10.1734 10.972C10.0774 11.0341 9.98004 11.094 9.88152 11.152C9.86601 11.1611 9.85059 11.1701 9.83502 11.179C9.58032 11.3258 9.31708 11.4574 9.04755 11.5745C9.03229 11.5811 9.01714 11.5876 9.00188 11.5941C8.4641 11.8206 7.90358 11.9915 7.3289 12.0942C7.22016 12.1137 7.11094 12.1307 7.00147 12.1456C7.00153 12.1456 7.00159 12.1455 7.00166 12.1455C7.00153 12.1455 7.0014 12.1456 7.00127 12.1456H7.00121C7.00114 12.1456 7.00102 12.1456 7.00095 12.1457C7.00044 12.1457 7.00002 12.1458 6.99957 12.1458C6.99976 12.1458 6.99996 12.1458 7.00021 12.1458C6.99536 12.1464 6.99064 12.147 6.98586 12.1477C6.98888 12.1472 6.9919 12.1468 6.99495 12.1464C6.97927 12.1485 6.96351 12.1505 6.94783 12.1525C6.94299 12.1498 6.93814 12.1471 6.93329 12.1445C6.88624 12.1188 6.83881 12.0938 6.79131 12.0689C6.69802 12.0202 6.60704 11.9676 6.5168 11.9135C6.43234 11.8629 6.34987 11.8089 6.26602 11.7572C6.17299 11.6999 6.07912 11.6439 5.9864 11.586C5.94604 11.5608 5.90667 11.5337 5.86784 11.506C5.8259 11.476 5.78438 11.4456 5.74324 11.4144C5.60492 11.3096 5.46574 11.2059 5.32816 11.1002C5.16823 10.9739 5.0103 10.8448 4.85686 10.7106C4.81427 10.6734 4.77182 10.6361 4.72991 10.5981C4.69198 10.5637 4.65508 10.5283 4.6179 10.4932C4.58174 10.4591 4.54696 10.4233 4.51202 10.3878C4.47107 10.3461 4.43013 10.3045 4.38905 10.2629C4.37502 10.2486 4.36041 10.2349 4.34576 10.2212C4.33687 10.2128 4.328 10.2045 4.31917 10.1961C4.31859 10.1956 4.31811 10.1951 4.31753 10.1946C4.3166 10.1856 4.31564 10.1765 4.31471 10.1676C4.3183 10.1627 4.32107 10.1572 4.3229 10.1506C4.32685 10.1361 4.32479 10.1201 4.31715 10.1071C4.31452 10.1026 4.31124 10.0984 4.30751 10.0949C4.307 10.0897 4.30658 10.0846 4.30607 10.0794C4.30215 10.0369 4.29859 9.9945 4.29531 9.95204C4.29531 9.94626 4.29525 9.94038 4.29525 9.9346C4.29525 9.92654 4.29525 9.91867 4.2946 9.91061C4.2939 9.90262 4.29329 9.89456 4.29265 9.88656C4.28988 9.85165 4.28709 9.81678 4.28497 9.78187C4.28076 9.71244 4.27762 9.64297 4.27527 9.57342C4.27457 9.55257 4.27395 9.53176 4.27338 9.51092C4.26833 9.28924 4.27261 9.06733 4.28577 8.84597C4.29743 8.65174 4.31618 8.458 4.34197 8.26515C4.37845 7.997 4.42833 7.73065 4.49214 7.46773C4.55177 7.22158 4.62397 6.97854 4.70721 6.73935ZM10.5805 10.8419C10.5749 10.8401 10.5693 10.8384 10.5638 10.8366C10.5638 10.8366 10.5638 10.8365 10.5639 10.8365C10.5694 10.8383 10.5749 10.8401 10.5805 10.8419ZM10.5444 10.7161C10.5405 10.719 10.5366 10.7218 10.5326 10.7247V10.7246L10.5444 10.7161ZM4.32887 10.2948C4.32893 10.2948 4.329 10.2949 4.32906 10.295C4.32945 10.2991 4.32987 10.3031 4.33031 10.3072C4.32987 10.303 4.32935 10.2989 4.32887 10.2948ZM6.6021 14.6091L6.60216 14.6084C6.60216 14.6087 6.60216 14.6089 6.60216 14.6092C6.60216 14.6092 6.60216 14.6092 6.6021 14.6091ZM6.69799 12.1777C6.69918 12.1783 6.70033 12.179 6.70152 12.1796C6.70146 12.1796 6.70133 12.1796 6.70126 12.1796L6.69799 12.1777ZM10.9144 7.66012C10.9145 7.65004 10.9147 7.63996 10.9148 7.62987C10.9149 7.62994 10.9149 7.63 10.9149 7.63C10.9147 7.64009 10.9146 7.65011 10.9144 7.66012ZM11.0274 7.77201C11.0275 7.77227 11.0278 7.77252 11.0279 7.77272C11.0281 7.77284 11.0281 7.77291 11.0282 7.77304L11.0282 7.7731L11.0281 7.77323C11.0206 7.76347 11.0131 7.75371 11.0055 7.74394C11.0129 7.75322 11.0201 7.76263 11.0274 7.77201ZM10.5383 15.5377C10.5286 15.5374 10.5189 15.5373 10.5092 15.5373C10.4897 15.5373 10.47 15.5382 10.4504 15.5396C10.4449 15.5373 10.4389 15.5358 10.4328 15.5347C10.4611 15.5255 10.4895 15.5164 10.5178 15.5068C10.5247 15.5045 10.5315 15.5021 10.5384 15.4997C10.5353 15.5119 10.5352 15.5253 10.5383 15.5377ZM12.8891 12.399C12.8864 12.4078 12.8838 12.4166 12.8812 12.4254C12.8841 12.3933 12.887 12.3612 12.8898 12.3292C12.8913 12.3123 12.8925 12.2954 12.8935 12.2785C12.9048 12.2807 12.9162 12.2802 12.9269 12.2776C12.9143 12.3181 12.9016 12.3585 12.8891 12.399ZM5.21323 1.07886C5.53331 0.945237 5.86119 0.832485 6.19579 0.741088C6.52592 0.650944 6.86232 0.583986 7.20128 0.537228C7.54654 0.492236 7.89369 0.469146 8.242 0.468439C8.59496 0.467797 8.94742 0.491498 9.29739 0.537421C9.64069 0.585046 9.98017 0.654573 10.3145 0.746002C10.4966 0.795778 10.6767 0.852717 10.8545 0.916013C10.8523 0.92067 10.8502 0.925391 10.8487 0.930111C10.846 0.938557 10.8446 0.94726 10.8438 0.955995C10.8423 0.97369 10.8427 0.991353 10.8438 1.00911C10.8462 1.04742 10.8535 1.08551 10.8622 1.12283C10.8655 1.13657 10.8697 1.15003 10.8735 1.16358C10.8771 1.17598 10.8801 1.18866 10.8842 1.20086C10.9012 1.25138 10.9187 1.30154 10.9381 1.35122C10.9478 1.37637 10.9586 1.40174 10.9708 1.42579C10.982 1.44785 10.9931 1.46995 11.0071 1.4905C11.0292 1.52319 11.0538 1.55438 11.0804 1.58366C11.0764 1.58366 11.0724 1.58366 11.0684 1.58366C10.941 1.58373 10.8137 1.58655 10.6864 1.59243C10.4296 1.60422 10.1735 1.62933 9.919 1.66594C9.41882 1.73788 8.92609 1.85972 8.44936 2.02703C8.31705 2.07347 8.18612 2.12385 8.05644 2.1772C8.04874 2.17138 8.03881 2.16849 8.02876 2.16849C8.01543 2.16849 8.00198 2.17341 7.99363 2.18278C7.98865 2.18847 7.98419 2.19444 7.9796 2.20041C7.97847 2.20292 7.97738 2.20539 7.97626 2.20783C7.93576 2.19958 7.89523 2.19129 7.8549 2.1823C7.79311 2.16856 7.73148 2.1544 7.66976 2.14062C7.65839 2.13808 7.64699 2.13554 7.63562 2.13304C7.59436 2.12045 7.55315 2.10783 7.51173 2.09569C7.4535 2.07861 7.39486 2.06332 7.33622 2.04774C7.27456 2.03137 7.21274 2.01557 7.15038 2.00201C7.09174 1.98923 7.03278 1.97796 6.97356 1.96813C6.90217 1.95635 6.83081 1.94639 6.75894 1.93872C6.6969 1.93204 6.63447 1.9277 6.57229 1.9226C6.4467 1.91232 6.32132 1.90143 6.19553 1.89495C6.07433 1.88878 5.95288 1.88505 5.83155 1.88104C5.78675 1.8796 5.74211 1.87863 5.69731 1.87841C5.69462 1.87841 5.69189 1.87841 5.68912 1.87841C5.65101 1.87841 5.61298 1.88037 5.57486 1.88181C5.5571 1.88249 5.53935 1.8847 5.52171 1.88615C5.50823 1.88721 5.4948 1.88836 5.48141 1.88949C5.43594 1.88502 5.3903 1.88091 5.34477 1.87683C5.24984 1.86832 5.15472 1.86129 5.05959 1.85429C5.05712 1.8531 5.05455 1.85207 5.05192 1.85134C5.05099 1.85108 5.04996 1.85082 5.04896 1.85063C5.04456 1.81466 5.04026 1.77869 5.03625 1.74266C5.02741 1.66398 5.02025 1.58517 5.01377 1.50624C5.00477 1.39638 4.99822 1.28632 4.99379 1.17614C5.06643 1.14261 5.13965 1.11024 5.21323 1.07886ZM1.07027 5.22209C1.19946 4.91903 1.3468 4.62442 1.51206 4.33931C1.68089 4.04778 1.86994 3.76813 2.0746 3.50055C2.27493 3.24284 2.49022 2.99761 2.7199 2.76569C2.95851 2.52467 3.21408 2.30035 3.4816 2.09184C3.75104 1.88489 4.03268 1.69523 4.32579 1.52345C4.52171 1.40861 4.7231 1.30321 4.9285 1.20645C4.93335 1.30649 4.94016 1.40646 4.9488 1.50617C4.95567 1.58511 4.96412 1.66392 4.9733 1.7426C4.97748 1.77812 4.98194 1.81367 4.98666 1.84918C4.96216 1.85037 4.94244 1.87455 4.94244 1.89819C4.94244 1.90259 4.94308 1.90702 4.94421 1.91123C4.93962 1.91482 4.93502 1.91849 4.9304 1.92211C4.92728 1.92462 4.9243 1.92728 4.92121 1.92985C4.91052 1.9347 4.89995 1.93978 4.89 1.94598C4.87664 1.95429 4.86411 1.96373 4.85175 1.97356C4.83229 1.98904 4.81302 2.00487 4.79378 2.02074C4.75441 2.05317 4.7161 2.08683 4.67862 2.12135C4.60335 2.19072 4.53273 2.26516 4.46471 2.34152C4.32569 2.4975 4.19605 2.66135 4.06666 2.82526C4.00227 2.90689 3.9382 2.98872 3.8751 3.07132C3.81514 3.1498 3.75644 3.22932 3.69677 3.30806C3.63315 3.39204 3.56896 3.47563 3.50527 3.55961C3.47586 3.59834 3.44626 3.63704 3.41765 3.67641C3.38312 3.72378 3.3486 3.77108 3.31408 3.81851C3.30499 3.83097 3.29693 3.84433 3.28845 3.85718C3.2696 3.88554 3.25078 3.91392 3.23193 3.94235C3.216 3.9664 3.20001 3.99048 3.18405 4.01454C3.17894 4.02221 3.17416 4.02979 3.16957 4.03772C3.13912 4.09046 3.10884 4.14319 3.07843 4.19592C3.04194 4.25921 3.0063 4.3229 2.97065 4.38671C2.96198 4.40225 2.96278 4.42078 2.97139 4.4352C2.96134 4.44095 2.95122 4.44657 2.9412 4.45235C2.93892 4.45341 2.93667 4.4545 2.93439 4.45556C2.93436 4.4555 2.9343 4.45543 2.93427 4.45537C2.93346 4.45309 2.93244 4.4511 2.93105 4.44927C2.9148 4.42823 2.89913 4.40649 2.88141 4.38664C2.87511 4.37951 2.86561 4.37608 2.8561 4.37608C2.84948 4.37608 2.84293 4.37778 2.83738 4.38099C2.82126 4.39043 2.81313 4.41439 2.82434 4.4307C2.83786 4.45029 2.85225 4.46927 2.86651 4.48838C2.8525 4.49535 2.83847 4.50235 2.82447 4.50929C2.81686 4.51308 2.80928 4.51693 2.80167 4.52078C2.79377 4.51462 2.78423 4.51115 2.77424 4.51115C2.7665 4.51115 2.75863 4.51304 2.75138 4.51687C2.72745 4.52952 2.70343 4.54208 2.68024 4.55604C2.65487 4.57136 2.6296 4.58684 2.60439 4.60242C2.55651 4.63203 2.50895 4.66212 2.46177 4.69269C2.36565 4.75493 2.27089 4.81932 2.17747 4.88557C1.98748 5.02025 1.80321 5.16319 1.62559 5.31387C1.45021 5.46272 1.28033 5.61831 1.11806 5.78136C1.03793 5.8618 0.95983 5.94414 0.883463 6.02815C0.845536 6.0698 0.808059 6.11181 0.771577 6.15471C0.758667 6.1699 0.745886 6.18519 0.733201 6.20057C0.823345 5.8672 0.937221 5.5406 1.07027 5.22209ZM1.75318 10.9523C1.75305 10.9522 1.75298 10.952 1.75285 10.9519C1.75266 10.9517 1.7524 10.9513 1.75221 10.9511C1.75257 10.9515 1.75285 10.9519 1.75318 10.9523ZM3.46648 14.37C3.21546 14.173 2.97659 13.9616 2.75019 13.7367C2.51042 13.4986 2.28733 13.2438 2.08 12.977C1.87874 12.7141 1.69373 12.4396 1.52578 12.1543C1.35425 11.8632 1.20345 11.5602 1.07085 11.2495C0.939758 10.9359 0.828965 10.6146 0.738435 10.2868C0.646975 9.95586 0.57931 9.61847 0.53207 9.27842C0.527156 9.241 0.522435 9.20353 0.518004 9.16605C0.52645 9.18426 0.535024 9.2024 0.543566 9.22055C0.543245 9.22154 0.542892 9.22257 0.542635 9.22363C0.539552 9.2349 0.541896 9.24492 0.54681 9.25513C0.774789 9.72859 1.04737 10.1801 1.36434 10.5994C1.42108 10.6743 1.47918 10.7483 1.53859 10.8212C1.54691 10.8315 1.55529 10.8417 1.56367 10.8518C1.56871 10.8581 1.57382 10.8644 1.57892 10.8706C1.64974 10.9575 1.72193 11.0433 1.79637 11.127C1.85854 11.1969 1.92197 11.2658 1.98661 11.3335C1.98905 11.3419 1.99368 11.3494 1.99978 11.3561C2.02207 11.3805 2.04451 11.4046 2.06776 11.4281C2.08466 11.4452 2.10158 11.4621 2.11867 11.479C2.11867 11.4811 2.11886 11.4832 2.11924 11.4853C2.12168 11.4991 2.12384 11.513 2.12692 11.5268C2.13013 11.5414 2.13556 11.5557 2.14028 11.5699C2.14577 11.5862 2.15129 11.6025 2.15746 11.6186C2.16754 11.6446 2.17756 11.6707 2.18765 11.6967C2.20126 11.732 2.2153 11.767 2.22965 11.802C2.26645 11.8916 2.30387 11.9809 2.34179 12.0701C2.35451 12.1001 2.367 12.1302 2.38033 12.1599C2.40397 12.2126 2.42751 12.2653 2.45108 12.3179C2.4636 12.3458 2.47552 12.374 2.489 12.4015C2.51383 12.452 2.53865 12.5025 2.56348 12.5531C2.57748 12.5815 2.59087 12.6102 2.60593 12.638C2.63288 12.6877 2.65979 12.7373 2.68676 12.787C2.70439 12.8195 2.72379 12.8511 2.74271 12.8829C2.76191 12.9154 2.78095 12.948 2.80074 12.9802C2.89239 13.1291 2.9833 13.2783 3.07203 13.4289C3.11889 13.5085 3.1659 13.588 3.21308 13.6674C3.25781 13.7427 3.30518 13.8163 3.35464 13.8885C3.3942 13.9465 3.43502 14.0036 3.47563 14.0608C3.49451 14.0874 3.5133 14.1141 3.53196 14.1408C3.54198 14.1553 3.55206 14.1697 3.56215 14.1842C3.57197 14.1984 3.58254 14.2121 3.5932 14.2257C3.59092 14.2279 3.58874 14.23 3.58652 14.2322C3.56276 14.2558 3.54008 14.281 3.51873 14.3068C3.50123 14.3278 3.48385 14.3489 3.46648 14.37ZM8.24203 16.0115C8.2377 16.0115 8.23326 16.0115 8.22893 16.0115C7.88736 16.0115 7.5459 15.9873 7.20735 15.9432C6.86893 15.8965 6.53427 15.8287 6.20443 15.7397C5.87131 15.6499 5.54484 15.5362 5.22659 15.4032C4.91238 15.2693 4.60711 15.1156 4.31211 14.9432C4.04697 14.7883 3.79189 14.6166 3.54692 14.4317C3.56141 14.414 3.57596 14.3963 3.5905 14.3786C3.60197 14.3646 3.61424 14.3512 3.62634 14.3377C3.64796 14.3136 3.6705 14.2902 3.69558 14.2696C3.70772 14.2607 3.72028 14.2522 3.73303 14.2441C3.76366 14.2666 3.79632 14.2878 3.83017 14.3049C3.87018 14.3251 3.911 14.3446 3.95275 14.3614C3.99675 14.3886 4.04305 14.4119 4.08853 14.4365C4.10555 14.4457 4.12234 14.4556 4.13981 14.464C4.17145 14.4791 4.20305 14.4943 4.23462 14.5094C4.25559 14.5195 4.27627 14.5299 4.29778 14.5386C4.33105 14.5521 4.36429 14.5655 4.39756 14.579C4.41532 14.5863 4.43295 14.5935 4.4511 14.5999C4.48649 14.6122 4.52191 14.6245 4.5573 14.6369C4.60932 14.655 4.66315 14.6681 4.71617 14.683C4.73633 14.6886 4.75679 14.693 4.77715 14.6977C4.80644 14.7046 4.83573 14.7114 4.86508 14.7183C4.91925 14.7309 4.97362 14.7432 5.02774 14.7562C5.13506 14.7821 5.24178 14.8105 5.349 14.8368C5.36191 14.8399 5.37508 14.8421 5.38806 14.8448C5.40116 14.8475 5.41426 14.8506 5.42749 14.8528C5.45716 14.8578 5.48684 14.8628 5.51658 14.8677C5.57188 14.8769 5.62756 14.8843 5.68312 14.8921C5.79253 14.9076 5.90284 14.9165 6.01332 14.9186C6.12613 14.9208 6.23895 14.9217 6.3518 14.9259C6.42621 14.9288 6.50052 14.9326 6.57493 14.9354C6.601 14.9364 6.62342 14.9167 6.62975 14.8925C6.63944 14.8923 6.64908 14.8919 6.65871 14.8915C6.66199 14.8972 6.66639 14.9019 6.67252 14.9054C6.68171 14.9108 6.69291 14.9123 6.70319 14.9094C6.71421 14.9064 6.72384 14.8979 6.72895 14.8874C6.74638 14.886 6.76379 14.8843 6.78116 14.8821C7.01633 15.0377 7.26011 15.1801 7.51044 15.3095C7.9153 15.5188 8.33837 15.6939 8.77301 15.8312C8.91601 15.8764 9.06052 15.9171 9.20603 15.9538C8.88608 15.9921 8.56436 16.0111 8.24203 16.0115ZM15.7518 10.2727C15.6627 10.603 15.5499 10.9265 15.4182 11.2421C15.2865 11.5514 15.1362 11.8519 14.9673 12.1425C14.7949 12.439 14.6015 12.7228 14.3925 12.9945C14.19 13.2539 13.9722 13.5006 13.7401 13.7336C13.5031 13.9716 13.2498 14.1931 12.9846 14.3989C12.9515 14.4243 12.9181 14.4494 12.8846 14.4742C12.8613 14.4647 12.8355 14.4605 12.8108 14.4555C12.7829 14.4498 12.7553 14.443 12.7276 14.4365C12.6913 14.4279 12.6552 14.4186 12.6192 14.4089C12.6205 14.4058 12.6216 14.4026 12.6226 14.3992C12.6279 14.3801 12.6252 14.3592 12.6152 14.3421C12.6055 14.3255 12.5894 14.3132 12.5709 14.3081C12.5646 14.3063 12.5574 14.3054 12.5501 14.3054C12.5428 14.3054 12.5355 14.3064 12.5287 14.3085C12.5317 14.2973 12.5348 14.2861 12.5379 14.2749C12.5433 14.2546 12.5486 14.2343 12.5539 14.214C12.5954 14.107 12.6345 13.9991 12.6713 13.8904C12.715 13.7609 12.7551 13.6301 12.7917 13.4984C12.8199 13.3971 12.8455 13.2951 12.8695 13.1927C12.8834 13.1351 12.8968 13.0773 12.9095 13.0194C12.9637 12.7718 13.0059 12.5214 13.036 12.2696C13.0395 12.2695 13.0429 12.2685 13.0456 12.2664C13.0516 12.2618 13.0575 12.2575 13.0628 12.2521C13.0673 12.2476 13.0712 12.2426 13.0758 12.2382C13.083 12.2315 13.0901 12.2247 13.0973 12.2179C13.1132 12.2029 13.1296 12.1883 13.1459 12.1736C13.1521 12.1679 13.1526 12.1581 13.1483 12.1511C13.1501 12.1489 13.152 12.1467 13.1538 12.1445C13.1853 12.1057 13.2176 12.0675 13.2479 12.0279C13.3129 11.9429 13.3777 11.8578 13.442 11.7723C13.4941 11.703 13.5461 11.6336 13.599 11.5649C13.5987 11.5653 13.5983 11.5656 13.5981 11.566C13.5982 11.5658 13.5983 11.5657 13.5984 11.5655C13.5992 11.5646 13.5999 11.5635 13.6007 11.5625C13.6009 11.5622 13.6011 11.5619 13.6014 11.5616C13.6011 11.562 13.6009 11.5623 13.6006 11.5627C13.6014 11.5616 13.6023 11.5605 13.6031 11.5595C13.6031 11.5594 13.6032 11.5593 13.6032 11.5592C13.6035 11.5589 13.6038 11.5586 13.604 11.5583C13.6039 11.5584 13.6039 11.5584 13.6039 11.5584C13.6371 11.5153 13.6704 11.4723 13.7036 11.4292C13.7036 11.4292 13.7036 11.4293 13.7036 11.4294C13.7036 11.4292 13.7037 11.4292 13.7038 11.4291C13.7038 11.429 13.7038 11.429 13.7038 11.429L13.7038 11.429C13.7038 11.429 13.7038 11.4289 13.7039 11.4288V11.4289C13.7041 11.4286 13.7043 11.4283 13.7046 11.428C13.7049 11.4276 13.7052 11.4272 13.7055 11.4268C13.7055 11.4268 13.7055 11.4268 13.7055 11.4267L13.7056 11.4267C13.7057 11.4267 13.7057 11.4266 13.7057 11.4265C13.7057 11.4265 13.7057 11.4265 13.7058 11.4265C13.7059 11.4264 13.7059 11.4263 13.7059 11.4263V11.4262L13.706 11.4261C13.706 11.4261 13.706 11.4261 13.7061 11.426C13.7062 11.4259 13.7062 11.4259 13.7063 11.4258C13.7064 11.4257 13.7065 11.4255 13.7066 11.4254L13.7067 11.4253V11.4252C13.7068 11.4252 13.7068 11.425 13.7069 11.425C13.7069 11.425 13.7068 11.425 13.7068 11.4251C13.7069 11.425 13.7069 11.425 13.707 11.4249C13.707 11.4249 13.707 11.4249 13.7071 11.4249C13.7071 11.4248 13.7071 11.4248 13.7071 11.4247C13.7072 11.4246 13.7073 11.4245 13.7073 11.4244C13.7074 11.4243 13.7074 11.4243 13.7075 11.4243C13.7075 11.4242 13.7075 11.4241 13.7076 11.4241C13.7076 11.4241 13.7077 11.4241 13.7077 11.424C13.7077 11.424 13.7077 11.424 13.7077 11.424C13.7077 11.424 13.7077 11.424 13.7077 11.4239C13.708 11.4235 13.7083 11.4232 13.7086 11.4228C13.7086 11.4227 13.7088 11.4226 13.7088 11.4225C13.7089 11.4224 13.709 11.4224 13.709 11.4223C13.7091 11.4223 13.7091 11.4223 13.7092 11.4222H13.7091C13.7093 11.4219 13.7094 11.4217 13.7097 11.4214C13.7103 11.4206 13.7109 11.4198 13.7116 11.419C13.7116 11.419 13.7116 11.419 13.7116 11.419C13.7434 11.3781 13.7752 11.3372 13.8069 11.2961C13.8068 11.2962 13.8068 11.2963 13.8068 11.2963C13.8068 11.2961 13.8069 11.296 13.807 11.2959C13.807 11.2959 13.8069 11.296 13.8069 11.2961C13.8079 11.2948 13.8089 11.2936 13.8099 11.2922C13.8098 11.2924 13.8096 11.2925 13.8096 11.2925C13.8106 11.2912 13.8117 11.2899 13.8127 11.2886C13.8444 11.2476 13.8762 11.2067 13.9078 11.1656C13.9085 11.1647 13.9092 11.1639 13.9098 11.163C13.9097 11.1632 13.9096 11.1633 13.9096 11.1633C13.9099 11.1629 13.9103 11.1624 13.9106 11.162C13.9106 11.1619 13.9107 11.1618 13.9107 11.1618C13.9107 11.1618 13.9107 11.1618 13.9107 11.1618C13.9108 11.1618 13.9109 11.1616 13.9109 11.1616C13.911 11.1615 13.9111 11.1615 13.9111 11.1614C13.9112 11.1613 13.9113 11.1612 13.9113 11.1611C13.9096 11.1634 13.9078 11.1657 13.9061 11.1679C13.9387 11.1256 13.9715 11.0834 14.0041 11.0411C14.0039 11.0413 14.0038 11.0415 14.0036 11.0418C14.0043 11.0408 14.005 11.0399 14.0057 11.039C14.006 11.0386 14.0063 11.0383 14.0066 11.0379C14.0055 11.0393 14.0044 11.0408 14.0033 11.0422C14.1248 10.8862 14.2469 10.7306 14.3657 10.5725C14.4274 10.4905 14.4888 10.4082 14.5505 10.3262C14.6058 10.2529 14.6623 10.1805 14.7179 10.1075C14.7755 10.0318 14.8333 9.95638 14.8903 9.8803C14.9504 9.80017 15.0093 9.71928 15.0671 9.63745C15.1152 9.56937 15.1619 9.50026 15.211 9.43292C15.2156 9.42505 15.2185 9.41667 15.2198 9.40784C15.2745 9.4115 15.3293 9.41439 15.3841 9.41689C15.4869 9.42148 15.5898 9.42376 15.6927 9.42376C15.6994 9.42376 15.706 9.42376 15.7127 9.42376C15.7134 9.42376 15.714 9.42376 15.7147 9.4237C15.7307 9.42364 15.7466 9.42357 15.7626 9.42338C15.7998 9.42312 15.8372 9.42287 15.8744 9.42068C15.8869 9.42036 15.8983 9.41432 15.9055 9.40501C15.9155 9.40475 15.9255 9.40443 15.9355 9.40414C15.8901 9.69683 15.829 9.98663 15.7518 10.2727ZM16.0203 8.47091C16.0176 8.56275 16.0128 8.65447 16.0069 8.74613C15.9954 8.92523 15.9769 9.10388 15.9534 9.28169C15.95 9.30639 15.9464 9.33108 15.9428 9.35571C15.9299 9.35616 15.9171 9.35655 15.9042 9.3569C15.897 9.34833 15.8862 9.34287 15.8744 9.34274C15.8394 9.34236 15.8046 9.34332 15.7696 9.34374C15.7507 9.34399 15.7318 9.34412 15.7129 9.34419C15.7129 9.34419 15.7128 9.34419 15.7127 9.34419C15.7055 9.34419 15.6982 9.34425 15.691 9.34425C15.5908 9.34438 15.4905 9.34313 15.3903 9.34014C15.3349 9.33857 15.2795 9.33629 15.2241 9.33359C15.2049 9.33262 15.1857 9.33163 15.1665 9.33057C15.1615 9.32945 15.1564 9.32887 15.1513 9.32887C15.149 9.32887 15.1466 9.329 15.144 9.32932C15.1439 9.32925 15.1436 9.32925 15.1434 9.32925C15.1342 9.32867 15.1249 9.32826 15.1157 9.32787C15.1104 9.30401 15.1044 9.28025 15.0987 9.25651C15.0966 9.24781 15.0945 9.23911 15.0924 9.23041C15.0927 9.22562 15.0923 9.22077 15.0907 9.21602C15.0887 9.20992 15.0866 9.20378 15.0846 9.19765C15.0784 9.1717 15.0723 9.14569 15.0665 9.11961C15.046 9.02703 15.0302 8.93348 15.0135 8.84012C15.0092 8.81601 15.0052 8.79173 15.0005 8.76767C14.9956 8.7424 14.9913 8.71697 14.9857 8.69189C14.9797 8.66504 14.9737 8.63822 14.9677 8.61144C14.9621 8.58681 14.9553 8.56243 14.9491 8.53793C14.9383 8.4947 14.926 8.45164 14.9124 8.40912C14.8975 8.36243 14.8824 8.31564 14.8654 8.26965C14.8474 8.22151 14.8295 8.17353 14.8104 8.12584C14.7913 8.07764 14.7712 8.02989 14.7511 7.9821C14.7144 7.89465 14.6759 7.80775 14.6359 7.72169C14.6151 7.67695 14.5951 7.6318 14.5734 7.58745C14.5598 7.55954 14.5462 7.53157 14.5326 7.50366C14.5245 7.48697 14.5167 7.47007 14.508 7.45366C14.4854 7.41063 14.4636 7.36718 14.4398 7.32485C14.4191 7.28808 14.3986 7.25115 14.3773 7.21467C14.3745 7.2094 14.3717 7.20414 14.369 7.19884C14.3479 7.15809 14.3254 7.11807 14.3032 7.0779C14.293 7.05924 14.2819 7.04097 14.2713 7.02253C14.2611 7.00509 14.2513 6.98734 14.2408 6.97006C14.2171 6.93133 14.1943 6.89183 14.1694 6.8539C14.1438 6.81492 14.1189 6.77541 14.0919 6.73742C14.0638 6.69792 14.036 6.65836 14.0068 6.61976C13.9923 6.60059 13.9779 6.58132 13.9632 6.56224C13.9582 6.55209 13.9532 6.54191 13.9488 6.53154C13.9294 6.48661 13.91 6.44172 13.8907 6.39673C13.8851 6.38285 13.8797 6.36885 13.8744 6.35491C13.8704 6.34489 13.8657 6.33683 13.8561 6.33125C13.8546 6.33041 13.853 6.32996 13.8515 6.32932C13.8602 6.26368 13.8681 6.19797 13.8752 6.13217C13.9006 5.89594 13.9153 5.65865 13.9195 5.4211C13.9281 4.94084 13.8926 4.4599 13.8147 3.98592C13.8009 3.90162 13.7854 3.81768 13.7686 3.73396C13.7742 3.73238 13.7795 3.72991 13.7845 3.72657C13.8112 3.70862 13.8385 3.69173 13.8677 3.67821C13.9554 3.64413 14.0489 3.63013 14.1418 3.61697C14.2179 3.60884 14.294 3.60406 14.3703 3.59914C14.4071 3.5968 14.444 3.5941 14.4808 3.59076C14.6599 3.83065 14.8252 4.08028 14.9762 4.33899C15.1426 4.62448 15.2894 4.92118 15.419 5.22511C15.5496 5.53761 15.6606 5.85756 15.7511 6.184C15.8416 6.51092 15.9088 6.84404 15.9558 7.17992C16.0005 7.52306 16.024 7.86845 16.0259 8.21448C16.0264 8.2999 16.0229 8.38545 16.0203 8.47091Z" stroke="white" stroke-width="0.5" stroke-linejoin="round"/>
<path d="M16.2235 7.94115C16.2188 7.81084 16.2101 7.68061 16.199 7.55065C16.1867 7.40723 16.1696 7.26403 16.1488 7.12141C16.1211 6.92722 16.0866 6.73392 16.0455 6.54223C15.9928 6.29688 15.927 6.05436 15.8513 5.81511C15.7749 5.57384 15.6847 5.33738 15.5859 5.10442C15.3943 4.65226 15.1565 4.22007 14.8842 3.81154C14.8132 3.70509 14.7397 3.60033 14.6637 3.49747C14.6623 3.47945 14.6545 3.46243 14.6417 3.44965C14.6347 3.44265 14.6251 3.4361 14.6147 3.43189C14.4107 3.16165 14.1897 2.90426 13.9539 2.66148C13.6104 2.30784 13.2318 1.98885 12.8296 1.7039C12.0298 1.13715 11.1213 0.724838 10.171 0.486681C9.68607 0.365161 9.18859 0.292519 8.68983 0.263167C8.53909 0.254335 8.38809 0.25 8.23715 0.25C7.88528 0.25 7.53343 0.273732 7.18471 0.319784C6.9382 0.352347 6.69362 0.396055 6.45122 0.451259C6.20976 0.506174 5.97134 0.573967 5.73624 0.65165C5.2658 0.80705 4.81068 1.0094 4.37707 1.24871C3.93448 1.49301 3.51789 1.78277 3.12913 2.10549C2.74065 2.42801 2.38518 2.78961 2.06484 3.17967C1.74935 3.56375 1.47019 3.9768 1.23049 4.41208C0.991623 4.84591 0.795566 5.30382 0.641194 5.77426C0.561871 6.01572 0.496005 6.26146 0.440673 6.50945C0.434314 6.538 0.428148 6.56651 0.422143 6.59506C0.418867 6.59949 0.415592 6.60396 0.412316 6.60839C0.401911 6.67137 0.386336 6.73325 0.371178 6.79552C0.367774 6.80946 0.364498 6.82343 0.361223 6.83743C0.367549 6.82911 0.373876 6.82076 0.380202 6.81241C0.354126 6.95888 0.332192 7.10603 0.313437 7.25356C0.281741 7.50277 0.263307 7.75329 0.254347 8.00426C0.245452 8.25346 0.25075 8.50293 0.265298 8.75181C0.294522 9.2508 0.373009 9.74738 0.494978 10.232C0.616177 10.7136 0.786896 11.1822 0.995348 11.6328C1.41424 12.5382 2.01195 13.3604 2.7331 14.0487C2.92007 14.2272 3.11629 14.3961 3.32008 14.5554C3.31761 14.5587 3.31517 14.562 3.31276 14.5654C3.30672 14.574 3.30326 14.5841 3.30066 14.5941C3.2941 14.6193 3.30865 14.6506 3.33579 14.6561C3.34202 14.6573 3.34825 14.6585 3.35464 14.6583C3.3768 14.6573 3.39642 14.6439 3.40246 14.6219C3.40265 14.6211 3.40284 14.6202 3.40303 14.6194C3.56038 14.7391 3.72201 14.8531 3.88721 14.9613C4.09778 15.0992 4.31561 15.2259 4.53832 15.3431C4.76087 15.4603 4.98997 15.5644 5.22244 15.6602C6.13988 16.0387 7.12976 16.2334 8.12122 16.2491C8.62718 16.2571 9.13323 16.2138 9.63167 16.1277C10.1243 16.0425 10.6079 15.9078 11.0754 15.7307C11.5373 15.5559 11.9819 15.3371 12.4036 15.0801C12.8232 14.8244 13.218 14.5272 13.5841 14.1997C14.3097 13.5506 14.912 12.7641 15.3568 11.8987C15.5813 11.462 15.7632 11.0032 15.9038 10.5328C16.0484 10.0492 16.1422 9.55142 16.1931 9.04947C16.2184 8.80091 16.2308 8.55074 16.2298 8.30093C16.2294 8.18089 16.2278 8.06104 16.2235 7.94115ZM14.377 3.4553C14.377 3.4553 14.377 3.4553 14.3769 3.4553C14.3282 3.39352 14.2787 3.33253 14.2286 3.27254C14.279 3.33279 14.3284 3.39371 14.377 3.4553ZM13.8062 3.55945C13.7831 3.57001 13.7611 3.58231 13.7396 3.5958C13.7371 3.58447 13.7346 3.57319 13.7321 3.56192C13.7231 3.52223 13.7138 3.48254 13.7043 3.443C13.7386 3.48144 13.7732 3.51969 13.8062 3.55945ZM13.6394 3.16949C13.6339 3.16319 13.6282 3.15696 13.6225 3.15073C13.6224 3.15048 13.6223 3.15022 13.6222 3.15003C13.628 3.15651 13.6337 3.163 13.6394 3.16949ZM11.2304 1.57936C11.2331 1.58138 11.2357 1.58334 11.2384 1.58533C11.2361 1.58527 11.2339 1.58521 11.2317 1.58521C11.2311 1.58299 11.2305 1.58087 11.2297 1.57878C11.23 1.57898 11.2302 1.57917 11.2304 1.57936ZM11.2101 1.55055C11.2101 1.55049 11.21 1.55043 11.2099 1.55036C11.2097 1.54847 11.2095 1.54657 11.2094 1.54468C11.2096 1.54667 11.2098 1.54863 11.2101 1.55055ZM11.2675 1.68482C11.2827 1.68527 11.2979 1.68575 11.3132 1.68627C11.3271 1.68678 11.3408 1.68691 11.3547 1.68698C11.3614 1.68698 11.3681 1.68698 11.3749 1.68704C11.3893 1.6977 11.4038 1.7084 11.4182 1.71903C11.4406 1.73553 11.4641 1.75066 11.487 1.76646C11.5078 1.78075 11.5284 1.79542 11.5496 1.80911C11.5794 1.82837 11.6093 1.84767 11.6391 1.86694C11.6649 1.88364 11.6919 1.8987 11.7182 1.9145C11.7642 1.94215 11.8116 1.96775 11.8583 1.99418C11.9128 2.02498 11.9665 2.05667 12.0202 2.08879C12.0477 2.10529 12.0743 2.12389 12.1012 2.14139C12.126 2.15745 12.15 2.17479 12.1743 2.19158C12.2213 2.22408 12.2677 2.25742 12.3147 2.28992C12.3609 2.32184 12.4076 2.35299 12.4537 2.38504C12.5083 2.42297 12.5625 2.46118 12.6164 2.50014C12.6629 2.53379 12.7089 2.56812 12.7554 2.60174C12.8499 2.67008 12.9466 2.73534 13.0405 2.80464C13.0732 2.82876 13.1055 2.85333 13.1378 2.87796C13.2281 2.95053 13.3159 3.02581 13.3987 3.10699C13.4431 3.15044 13.4865 3.19457 13.5291 3.23991C13.5443 3.2561 13.559 3.27286 13.5735 3.28988C13.5742 3.29265 13.5749 3.29547 13.5757 3.29827C13.5873 3.34274 13.5984 3.38729 13.6093 3.43186C13.6319 3.52509 13.6529 3.61876 13.6724 3.71276C13.71 3.89494 13.7412 4.07832 13.7663 4.26262C13.7664 4.26381 13.7666 4.26503 13.7668 4.26622C13.7671 4.26817 13.7673 4.27007 13.7675 4.272C13.8299 4.74237 13.85 5.21798 13.8282 5.69195C13.8186 5.90166 13.8006 6.11085 13.7743 6.31917C13.7458 6.32829 13.7175 6.33731 13.6886 6.34486C13.6616 6.35186 13.6344 6.35809 13.6073 6.36445C13.5509 6.37768 13.4952 6.39316 13.4399 6.41018C13.3861 6.42682 13.3325 6.44445 13.2784 6.46018C13.2228 6.47637 13.167 6.49217 13.1111 6.50755C12.9968 6.53886 12.8822 6.56992 12.77 6.60845C12.7362 6.62011 12.7024 6.6317 12.6686 6.64336C12.6409 6.65287 12.6136 6.66388 12.5861 6.67409C12.5281 6.69577 12.4702 6.7178 12.4123 6.73986C12.3598 6.7599 12.307 6.77904 12.2541 6.79812C12.202 6.81694 12.15 6.83611 12.0973 6.8531C12.0395 6.87176 11.982 6.89154 11.9238 6.90866C11.8671 6.92529 11.8104 6.94193 11.7537 6.95863C11.6842 6.97911 11.6147 6.99957 11.5453 7.02006C11.4873 7.03714 11.4298 7.05622 11.3722 7.0743C11.2551 7.11097 11.1391 7.15083 11.0228 7.18994C10.9905 7.20077 10.9584 7.21188 10.9262 7.22302C10.9268 7.21711 10.9273 7.21117 10.9281 7.20533C10.9292 7.19813 10.9308 7.1911 10.9326 7.18403C10.9376 7.16483 10.9296 7.14421 10.9123 7.13416C10.9057 7.13024 10.8978 7.12838 10.8899 7.12838C10.8745 7.12838 10.8589 7.13567 10.8519 7.15006C10.8454 7.16329 10.8398 7.17678 10.8354 7.19087C10.8337 7.19617 10.8327 7.2017 10.8314 7.20712C10.8288 7.21782 10.8272 7.2288 10.8254 7.23962C10.821 7.26596 10.8201 7.29303 10.8187 7.31968C10.8182 7.32762 10.8178 7.33561 10.8176 7.34354C10.8175 7.34335 10.8173 7.34322 10.8172 7.34303C10.7448 7.25982 10.6708 7.17835 10.595 7.09848C10.4757 6.97218 10.352 6.85011 10.2247 6.73187C10.0854 6.60254 9.94106 6.47865 9.79259 6.35989C9.75441 6.32922 9.716 6.29884 9.6773 6.26888C9.46917 6.10751 9.2533 5.95599 9.0296 5.81697C8.81157 5.68142 8.58751 5.5555 8.35713 5.44217C8.26416 5.39644 8.17038 5.35238 8.07587 5.30999C8.076 5.30979 8.07613 5.3096 8.07626 5.30938C8.08856 5.28789 8.09007 5.26111 8.09302 5.23718C8.09479 5.22315 8.09517 5.20889 8.09549 5.19479C8.09607 5.16929 8.097 5.14376 8.09787 5.11827C8.09977 5.06239 8.09874 5.00644 8.09617 4.95057C8.09074 4.83309 8.08339 4.71536 8.06858 4.59863C8.06158 4.54365 8.0541 4.48883 8.04492 4.43414C8.03583 4.38032 8.02712 4.32643 8.01877 4.27241C8.01521 4.24451 8.01171 4.21663 8.00814 4.18869C8.00432 4.15879 8.00265 4.12848 8.00005 4.09845C8.00365 4.02401 8.00856 3.94964 8.01437 3.87526C8.02362 3.75676 8.03496 3.63842 8.0453 3.51998C8.05612 3.39506 8.06553 3.27007 8.07411 3.14499C8.07671 3.10674 8.07886 3.06846 8.08085 3.03015C8.0823 3.01855 8.0839 3.00699 8.08531 2.9954C8.09684 2.90034 8.10384 2.80477 8.1112 2.70942C8.1147 2.6643 8.11903 2.61928 8.12395 2.57435C8.12764 2.55951 8.13133 2.54471 8.1349 2.52991C8.14415 2.49153 8.15336 2.45318 8.16261 2.41481C8.17382 2.36802 8.18667 2.32158 8.19909 2.27502C8.20484 2.2535 8.19463 2.23096 8.17568 2.22071C8.22215 2.20247 8.26875 2.18458 8.3156 2.16727C8.43404 2.12344 8.55367 2.08268 8.67409 2.04463C8.91498 1.96865 9.15966 1.90464 9.40671 1.85217C9.59978 1.81116 9.79442 1.77763 9.99003 1.7512C10.2312 1.71912 10.4738 1.69809 10.7169 1.68797C10.8391 1.68286 10.9615 1.68065 11.0839 1.68136C11.145 1.68177 11.2063 1.68299 11.2675 1.68482ZM14.9795 9.31926C14.9795 9.31926 14.9795 9.31926 14.9794 9.31926L14.9777 9.3112C14.9783 9.3139 14.9789 9.31653 14.9795 9.31926ZM13.7982 6.67422C13.7965 6.68293 13.795 6.69166 13.7933 6.70049C13.7949 6.69166 13.7965 6.6828 13.7981 6.67397C13.7981 6.67409 13.7982 6.67416 13.7982 6.67422ZM13.0516 12.1874C13.0492 12.1905 13.0468 12.1936 13.0444 12.1967C13.0444 12.1966 13.0444 12.1966 13.0444 12.1965C13.0468 12.1935 13.0492 12.1904 13.0516 12.1874ZM9.18635 15.8174C9.19412 15.8162 9.20189 15.8149 9.20969 15.8137C9.20773 15.8163 9.206 15.8191 9.20443 15.8219C9.19842 15.8204 9.19235 15.819 9.18635 15.8174ZM6.91151 14.7995C6.90943 14.7919 6.90541 14.7849 6.90027 14.7789C6.90037 14.7626 6.89648 14.7463 6.88781 14.732C6.87725 14.7145 6.86607 14.7002 6.84838 14.6894C6.83383 14.6804 6.81928 14.6744 6.80252 14.6714C6.78556 14.6685 6.76918 14.6673 6.75213 14.6668C6.74369 14.6665 6.73524 14.6662 6.72679 14.6658C6.72862 14.6499 6.73036 14.634 6.73232 14.6181C6.74002 14.5625 6.74947 14.5072 6.76048 14.452C6.77169 14.396 6.78447 14.3404 6.79639 14.2846C6.82037 14.1713 6.8391 14.057 6.86084 13.9433C6.88357 13.8244 6.90715 13.7058 6.93782 13.5886C6.968 13.4733 7.0022 13.359 7.03885 13.2456C7.07533 13.1326 7.11727 13.0216 7.15256 12.9082C7.1699 12.8526 7.18487 12.7962 7.19999 12.7399C7.21544 12.6827 7.22488 12.6238 7.23513 12.5654C7.23949 12.5404 7.24338 12.5153 7.24711 12.4902C7.25385 12.4943 7.26053 12.4985 7.26698 12.5031C7.27713 12.5091 7.28808 12.512 7.29987 12.512C7.31708 12.512 7.33375 12.5052 7.34592 12.493C7.37042 12.4685 7.3718 12.4252 7.34592 12.4009C7.32055 12.3771 7.29068 12.3591 7.2612 12.3409C7.24219 12.3293 7.22321 12.3178 7.2042 12.3062C7.20375 12.3052 7.20324 12.3041 7.20269 12.3031C7.2006 12.2995 7.19778 12.2967 7.19418 12.2946C7.19046 12.2924 7.18673 12.2914 7.18304 12.2914C7.18211 12.2914 7.18114 12.2915 7.18021 12.2916C7.15683 12.2774 7.13345 12.2631 7.11011 12.2489C7.36162 12.2108 7.61134 12.1599 7.85814 12.0983C8.14055 12.0277 8.41892 11.9413 8.69166 11.8397C8.96781 11.7368 9.23818 11.6172 9.501 11.4836C9.83832 11.3123 10.1636 11.1172 10.4737 10.9005C10.4749 10.9139 10.4762 10.9273 10.4776 10.9407C10.4785 10.9495 10.4805 10.9568 10.4869 10.9632C10.4928 10.9691 10.501 10.9725 10.5094 10.9725C10.5255 10.9725 10.543 10.9579 10.5413 10.9407C10.5397 10.9254 10.5384 10.9101 10.5371 10.8948C10.5398 10.8956 10.5424 10.8965 10.5451 10.8973C10.5777 10.9077 10.6094 10.9211 10.641 10.9339C10.693 10.9565 10.7451 10.979 10.7965 11.0027C10.8571 11.0306 10.9176 11.0585 10.9782 11.0865C10.999 11.0961 11.0197 11.1057 11.0405 11.1153C11.0415 11.1158 11.0426 11.1163 11.0436 11.1167C11.1346 11.1588 11.2256 11.201 11.3161 11.2439C11.3443 11.2573 11.3717 11.2728 11.3994 11.2872C11.4204 11.2981 11.4412 11.3089 11.4617 11.3207C11.5179 11.3532 11.574 11.3855 11.6295 11.4188C11.74 11.4852 11.8503 11.5517 11.9598 11.6195C11.9849 11.635 12.0091 11.6519 12.0337 11.6681C12.0536 11.6813 12.0733 11.6947 12.0929 11.7085C12.1386 11.7406 12.1834 11.7734 12.2283 11.8067C12.2512 11.825 12.2742 11.8433 12.2972 11.8615C12.3201 11.8798 12.3421 11.8993 12.3644 11.9182C12.4116 11.958 12.4579 11.9989 12.5055 12.0382C12.5536 12.0779 12.603 12.1168 12.6541 12.1527C12.6781 12.1696 12.7021 12.1868 12.7271 12.2023C12.7517 12.2176 12.7766 12.2334 12.8031 12.2451C12.8044 12.2457 12.8056 12.2462 12.8069 12.2467C12.8064 12.2549 12.806 12.2631 12.8054 12.2712C12.8039 12.2928 12.8028 12.3144 12.8009 12.336C12.797 12.3818 12.7927 12.4275 12.7887 12.4732C12.7834 12.533 12.7789 12.5929 12.7735 12.6527C12.7709 12.683 12.7691 12.7137 12.7654 12.744C12.7619 12.7719 12.7584 12.7998 12.7549 12.8277C12.7476 12.8692 12.7411 12.9108 12.7323 12.952C12.7223 12.9996 12.7119 13.0471 12.7012 13.0945C12.6806 13.1856 12.6619 13.2771 12.6437 13.3688C12.6277 13.4497 12.6127 13.5307 12.5931 13.6108C12.5817 13.6575 12.5701 13.7041 12.5579 13.7506C12.5456 13.7974 12.5328 13.8441 12.5199 13.8907C12.4977 13.971 12.4736 14.0507 12.45 14.1305C12.4234 14.2201 12.397 14.3097 12.3674 14.3984C12.3645 14.407 12.3612 14.4153 12.3589 14.4239C12.0198 14.656 11.664 14.8634 11.2943 15.0428C11.1815 15.0969 11.0674 15.1484 10.9522 15.1972C10.9556 15.1958 10.959 15.1943 10.9624 15.193C10.958 15.1949 10.9536 15.1967 10.9491 15.1985C10.9481 15.199 10.947 15.1994 10.946 15.1999C10.9469 15.1994 10.948 15.199 10.9489 15.1986C10.4291 15.4168 9.88511 15.5783 9.33147 15.684C9.32366 15.6855 9.31618 15.6897 9.30976 15.6952C9.30652 15.6965 9.30334 15.6981 9.30029 15.6999C9.22864 15.7129 9.15674 15.7248 9.08474 15.7354C9.07308 15.7371 9.06149 15.7479 9.05583 15.7577C9.05172 15.7646 9.04954 15.7725 9.04928 15.7805C8.72493 15.6902 8.40636 15.5792 8.09614 15.4485C7.6844 15.2735 7.28882 15.0624 6.91299 14.82C6.91379 14.8132 6.91341 14.8062 6.91151 14.7995ZM2.27451 11.4812H2.27458C2.2759 11.4825 2.27721 11.4837 2.27863 11.4851C2.27721 11.4838 2.2759 11.4825 2.27451 11.4812ZM2.39722 11.3807C2.39873 11.3793 2.40024 11.378 2.40175 11.3766C2.40188 11.3765 2.40207 11.3765 2.4022 11.3764C2.4005 11.3778 2.39886 11.3793 2.39722 11.3807ZM3.98836 5.83765C3.98743 5.8364 3.98641 5.83515 3.98547 5.83386L3.98496 5.83316C3.98612 5.8347 3.98724 5.83614 3.98836 5.83765ZM3.98319 5.83075L3.98239 5.82962C3.98345 5.831 3.98454 5.83232 3.98554 5.83373C3.98477 5.83267 3.98397 5.83174 3.98319 5.83075ZM3.2511 4.87651L3.25004 4.875C3.26032 4.88836 3.2705 4.90159 3.28052 4.91457C3.27076 4.90198 3.26099 4.88936 3.25123 4.87677C3.25187 4.87754 3.25242 4.87834 3.25306 4.87911C3.25242 4.87821 3.25175 4.87738 3.2511 4.87651ZM4.80772 6.26503C4.80641 6.2666 4.80515 6.2683 4.80406 6.27013C4.80406 6.27013 4.804 6.27013 4.80393 6.27013C4.80509 6.2683 4.80634 6.2666 4.80772 6.26503ZM7.72641 2.29628C7.73826 2.29962 7.7502 2.30295 7.76212 2.30617C7.76205 2.30617 7.76199 2.30623 7.76199 2.30623C7.75011 2.30295 7.73819 2.29962 7.72641 2.29628ZM5.00529 1.97937C4.99684 1.98605 4.98859 1.9928 4.98046 1.99973C4.98865 1.99273 4.99691 1.98593 5.00529 1.97928C5.00529 1.97928 5.00529 1.97931 5.00529 1.97937ZM3.61311 3.5757L3.61321 3.5756C3.61314 3.57563 3.61311 3.5757 3.61311 3.5757ZM3.0228 4.57194L3.03661 4.5906C3.03202 4.58443 3.02736 4.57827 3.02268 4.57207C3.02274 4.57207 3.02274 4.57201 3.0228 4.57194ZM4.70721 6.73935C4.71809 6.74622 4.72914 6.75284 4.74041 6.75913C4.75088 6.76495 4.76241 6.76784 4.77381 6.76784C4.7907 6.76784 4.8074 6.76154 4.82005 6.74889C4.83235 6.73662 4.83926 6.71979 4.83926 6.70239C4.83926 6.68733 4.83338 6.66998 4.82246 6.65874C4.82908 6.65422 4.83428 6.64831 4.83794 6.64166C4.84693 6.63517 4.85593 6.62869 4.86495 6.62223C4.88926 6.60479 4.91486 6.58877 4.93971 6.57213C4.96026 6.55832 4.98111 6.54506 5.00182 6.53157C5.08869 6.47505 5.17536 6.41837 5.2613 6.36047C5.35559 6.29698 5.44971 6.2333 5.54529 6.17167C5.54644 6.17093 5.54763 6.17026 5.54875 6.16952C5.55344 6.1673 5.5581 6.16493 5.56282 6.16277C5.6001 6.14569 5.63736 6.12857 5.67471 6.11168C5.84449 6.03477 6.01222 5.95362 6.18275 5.87853C6.31114 5.82516 6.43998 5.77291 6.566 5.71405C6.62615 5.68601 6.68556 5.65672 6.74529 5.62775C6.77362 5.61398 6.80178 5.59975 6.8303 5.5863C6.89687 5.55893 6.96325 5.53112 7.02899 5.5019C7.03124 5.5009 7.03345 5.49991 7.03567 5.49891C7.07295 5.48581 7.11017 5.47277 7.14768 5.46057C7.2219 5.43645 7.29647 5.41275 7.37136 5.39085C7.44904 5.36805 7.52727 5.34839 7.60608 5.3298C7.66886 5.31503 7.73161 5.30151 7.79513 5.29078C7.81167 5.29759 7.82827 5.30433 7.84475 5.31127C8.31734 5.5115 8.76928 5.75839 9.19431 6.04604C9.33327 6.14017 9.46933 6.23869 9.60232 6.34117C9.63344 6.36522 9.66443 6.3896 9.69516 6.41416C9.85535 6.54281 10.0105 6.67747 10.1606 6.8179C10.2345 6.88701 10.307 6.95763 10.3781 7.02963C10.3793 7.03088 10.3806 7.03223 10.3819 7.03348C10.3851 7.03682 10.3883 7.0401 10.3916 7.04337C10.3945 7.04633 10.3974 7.04935 10.4003 7.05233C10.402 7.05397 10.4037 7.05567 10.4053 7.05738C10.5185 7.17315 10.6282 7.29235 10.7343 7.41474C10.7619 7.44653 10.7892 7.47855 10.8164 7.51079C10.8163 7.58279 10.8163 7.65473 10.816 7.72673C10.8157 7.81453 10.8144 7.90243 10.812 7.99022C10.8096 8.0761 10.8051 8.16207 10.7963 8.24755C10.7938 8.27113 10.7914 8.29467 10.789 8.31817C10.784 8.35533 10.7797 8.39261 10.7733 8.42955C10.7658 8.47364 10.7589 8.51792 10.7505 8.56189C10.7332 8.65078 10.7151 8.73961 10.6988 8.82866C10.6905 8.87368 10.6815 8.91861 10.6741 8.96379C10.6666 9.00882 10.6583 9.05387 10.6518 9.09909C10.6447 9.14778 10.6377 9.19649 10.6307 9.24524C10.6234 9.29688 10.6178 9.34894 10.6114 9.40071C10.6009 9.48542 10.5931 9.57059 10.5851 9.6556C10.577 9.74018 10.5685 9.82474 10.5585 9.90914C10.5479 9.99896 10.5373 10.0888 10.5266 10.1786C10.5155 10.2722 10.5038 10.3657 10.4938 10.4593C10.4899 10.4958 10.4857 10.5322 10.4821 10.5686C10.4797 10.5936 10.4773 10.6186 10.4749 10.6436C10.4732 10.6608 10.4704 10.6784 10.4698 10.6958C10.4691 10.7175 10.4683 10.7393 10.4675 10.761C10.4674 10.7646 10.4673 10.7682 10.4673 10.7718C10.4502 10.784 10.4331 10.7961 10.4159 10.8082C10.4032 10.8082 10.3907 10.8091 10.3782 10.811C10.3581 10.8141 10.3386 10.8282 10.3276 10.8448C10.3217 10.8536 10.3171 10.8624 10.3161 10.8732C10.3159 10.8745 10.3158 10.876 10.3158 10.8774C10.2687 10.9095 10.2212 10.941 10.1734 10.972C10.0774 11.0341 9.98004 11.094 9.88152 11.152C9.86601 11.1611 9.85059 11.1701 9.83502 11.179C9.58032 11.3258 9.31708 11.4574 9.04755 11.5745C9.03229 11.5811 9.01714 11.5876 9.00188 11.5941C8.4641 11.8206 7.90358 11.9915 7.3289 12.0942C7.22016 12.1137 7.11094 12.1307 7.00147 12.1456C7.00153 12.1456 7.00159 12.1455 7.00166 12.1455C7.00153 12.1455 7.0014 12.1456 7.00127 12.1456H7.00121C7.00114 12.1456 7.00102 12.1456 7.00095 12.1457C7.00044 12.1457 7.00002 12.1458 6.99957 12.1458C6.99976 12.1458 6.99996 12.1458 7.00021 12.1458C6.99536 12.1464 6.99064 12.147 6.98586 12.1477C6.98888 12.1472 6.9919 12.1468 6.99495 12.1464C6.97927 12.1485 6.96351 12.1505 6.94783 12.1525C6.94299 12.1498 6.93814 12.1471 6.93329 12.1445C6.88624 12.1188 6.83881 12.0938 6.79131 12.0689C6.69802 12.0202 6.60704 11.9676 6.5168 11.9135C6.43234 11.8629 6.34987 11.8089 6.26602 11.7572C6.17299 11.6999 6.07912 11.6439 5.9864 11.586C5.94604 11.5608 5.90667 11.5337 5.86784 11.506C5.8259 11.476 5.78438 11.4456 5.74324 11.4144C5.60492 11.3096 5.46574 11.2059 5.32816 11.1002C5.16823 10.9739 5.0103 10.8448 4.85686 10.7106C4.81427 10.6734 4.77182 10.6361 4.72991 10.5981C4.69198 10.5637 4.65508 10.5283 4.6179 10.4932C4.58174 10.4591 4.54696 10.4233 4.51202 10.3878C4.47107 10.3461 4.43013 10.3045 4.38905 10.2629C4.37502 10.2486 4.36041 10.2349 4.34576 10.2212C4.33687 10.2128 4.328 10.2045 4.31917 10.1961C4.31859 10.1956 4.31811 10.1951 4.31753 10.1946C4.3166 10.1856 4.31564 10.1765 4.31471 10.1676C4.3183 10.1627 4.32107 10.1572 4.3229 10.1506C4.32685 10.1361 4.32479 10.1201 4.31715 10.1071C4.31452 10.1026 4.31124 10.0984 4.30751 10.0949C4.307 10.0897 4.30658 10.0846 4.30607 10.0794C4.30215 10.0369 4.29859 9.9945 4.29531 9.95204C4.29531 9.94626 4.29525 9.94038 4.29525 9.9346C4.29525 9.92654 4.29525 9.91867 4.2946 9.91061C4.2939 9.90262 4.29329 9.89456 4.29265 9.88656C4.28988 9.85165 4.28709 9.81678 4.28497 9.78187C4.28076 9.71244 4.27762 9.64297 4.27527 9.57342C4.27457 9.55257 4.27395 9.53176 4.27338 9.51092C4.26833 9.28924 4.27261 9.06733 4.28577 8.84597C4.29743 8.65174 4.31618 8.458 4.34197 8.26515C4.37845 7.997 4.42833 7.73065 4.49214 7.46773C4.55177 7.22158 4.62397 6.97854 4.70721 6.73935ZM10.5805 10.8419C10.5749 10.8401 10.5693 10.8384 10.5638 10.8366C10.5638 10.8366 10.5638 10.8365 10.5639 10.8365C10.5694 10.8383 10.5749 10.8401 10.5805 10.8419ZM10.5444 10.7161C10.5405 10.719 10.5366 10.7218 10.5326 10.7247V10.7246L10.5444 10.7161ZM4.32887 10.2948C4.32893 10.2948 4.329 10.2949 4.32906 10.295C4.32945 10.2991 4.32987 10.3031 4.33031 10.3072C4.32987 10.303 4.32935 10.2989 4.32887 10.2948ZM6.6021 14.6091L6.60216 14.6084C6.60216 14.6087 6.60216 14.6089 6.60216 14.6092C6.60216 14.6092 6.60216 14.6092 6.6021 14.6091ZM6.69799 12.1777C6.69918 12.1783 6.70033 12.179 6.70152 12.1796C6.70146 12.1796 6.70133 12.1796 6.70126 12.1796L6.69799 12.1777ZM10.9144 7.66012C10.9145 7.65004 10.9147 7.63996 10.9148 7.62987C10.9149 7.62994 10.9149 7.63 10.9149 7.63C10.9147 7.64009 10.9146 7.65011 10.9144 7.66012ZM11.0274 7.77201C11.0275 7.77227 11.0278 7.77252 11.0279 7.77272C11.0281 7.77284 11.0281 7.77291 11.0282 7.77304L11.0282 7.7731L11.0281 7.77323C11.0206 7.76347 11.0131 7.75371 11.0055 7.74394C11.0129 7.75322 11.0201 7.76263 11.0274 7.77201ZM10.5383 15.5377C10.5286 15.5374 10.5189 15.5373 10.5092 15.5373C10.4897 15.5373 10.47 15.5382 10.4504 15.5396C10.4449 15.5373 10.4389 15.5358 10.4328 15.5347C10.4611 15.5255 10.4895 15.5164 10.5178 15.5068C10.5247 15.5045 10.5315 15.5021 10.5384 15.4997C10.5353 15.5119 10.5352 15.5253 10.5383 15.5377ZM12.8891 12.399C12.8864 12.4078 12.8838 12.4166 12.8812 12.4254C12.8841 12.3933 12.887 12.3612 12.8898 12.3292C12.8913 12.3123 12.8925 12.2954 12.8935 12.2785C12.9048 12.2807 12.9162 12.2802 12.9269 12.2776C12.9143 12.3181 12.9016 12.3585 12.8891 12.399ZM5.21323 1.07886C5.53331 0.945237 5.86119 0.832485 6.19579 0.741088C6.52592 0.650944 6.86232 0.583986 7.20128 0.537228C7.54654 0.492236 7.89369 0.469146 8.242 0.468439C8.59496 0.467797 8.94742 0.491498 9.29739 0.537421C9.64069 0.585046 9.98017 0.654573 10.3145 0.746002C10.4966 0.795778 10.6767 0.852717 10.8545 0.916013C10.8523 0.92067 10.8502 0.925391 10.8487 0.930111C10.846 0.938557 10.8446 0.94726 10.8438 0.955995C10.8423 0.97369 10.8427 0.991353 10.8438 1.00911C10.8462 1.04742 10.8535 1.08551 10.8622 1.12283C10.8655 1.13657 10.8697 1.15003 10.8735 1.16358C10.8771 1.17598 10.8801 1.18866 10.8842 1.20086C10.9012 1.25138 10.9187 1.30154 10.9381 1.35122C10.9478 1.37637 10.9586 1.40174 10.9708 1.42579C10.982 1.44785 10.9931 1.46995 11.0071 1.4905C11.0292 1.52319 11.0538 1.55438 11.0804 1.58366C11.0764 1.58366 11.0724 1.58366 11.0684 1.58366C10.941 1.58373 10.8137 1.58655 10.6864 1.59243C10.4296 1.60422 10.1735 1.62933 9.919 1.66594C9.41882 1.73788 8.92609 1.85972 8.44936 2.02703C8.31705 2.07347 8.18612 2.12385 8.05644 2.1772C8.04874 2.17138 8.03881 2.16849 8.02876 2.16849C8.01543 2.16849 8.00198 2.17341 7.99363 2.18278C7.98865 2.18847 7.98419 2.19444 7.9796 2.20041C7.97847 2.20292 7.97738 2.20539 7.97626 2.20783C7.93576 2.19958 7.89523 2.19129 7.8549 2.1823C7.79311 2.16856 7.73148 2.1544 7.66976 2.14062C7.65839 2.13808 7.64699 2.13554 7.63562 2.13304C7.59436 2.12045 7.55315 2.10783 7.51173 2.09569C7.4535 2.07861 7.39486 2.06332 7.33622 2.04774C7.27456 2.03137 7.21274 2.01557 7.15038 2.00201C7.09174 1.98923 7.03278 1.97796 6.97356 1.96813C6.90217 1.95635 6.83081 1.94639 6.75894 1.93872C6.6969 1.93204 6.63447 1.9277 6.57229 1.9226C6.4467 1.91232 6.32132 1.90143 6.19553 1.89495C6.07433 1.88878 5.95288 1.88505 5.83155 1.88104C5.78675 1.8796 5.74211 1.87863 5.69731 1.87841C5.69462 1.87841 5.69189 1.87841 5.68912 1.87841C5.65101 1.87841 5.61298 1.88037 5.57486 1.88181C5.5571 1.88249 5.53935 1.8847 5.52171 1.88615C5.50823 1.88721 5.4948 1.88836 5.48141 1.88949C5.43594 1.88502 5.3903 1.88091 5.34477 1.87683C5.24984 1.86832 5.15472 1.86129 5.05959 1.85429C5.05712 1.8531 5.05455 1.85207 5.05192 1.85134C5.05099 1.85108 5.04996 1.85082 5.04896 1.85063C5.04456 1.81466 5.04026 1.77869 5.03625 1.74266C5.02741 1.66398 5.02025 1.58517 5.01377 1.50624C5.00477 1.39638 4.99822 1.28632 4.99379 1.17614C5.06643 1.14261 5.13965 1.11024 5.21323 1.07886ZM1.07027 5.22209C1.19946 4.91903 1.3468 4.62442 1.51206 4.33931C1.68089 4.04778 1.86994 3.76813 2.0746 3.50055C2.27493 3.24284 2.49022 2.99761 2.7199 2.76569C2.95851 2.52467 3.21408 2.30035 3.4816 2.09184C3.75104 1.88489 4.03268 1.69523 4.32579 1.52345C4.52171 1.40861 4.7231 1.30321 4.9285 1.20645C4.93335 1.30649 4.94016 1.40646 4.9488 1.50617C4.95567 1.58511 4.96412 1.66392 4.9733 1.7426C4.97748 1.77812 4.98194 1.81367 4.98666 1.84918C4.96216 1.85037 4.94244 1.87455 4.94244 1.89819C4.94244 1.90259 4.94308 1.90702 4.94421 1.91123C4.93962 1.91482 4.93502 1.91849 4.9304 1.92211C4.92728 1.92462 4.9243 1.92728 4.92121 1.92985C4.91052 1.9347 4.89995 1.93978 4.89 1.94598C4.87664 1.95429 4.86411 1.96373 4.85175 1.97356C4.83229 1.98904 4.81302 2.00487 4.79378 2.02074C4.75441 2.05317 4.7161 2.08683 4.67862 2.12135C4.60335 2.19072 4.53273 2.26516 4.46471 2.34152C4.32569 2.4975 4.19605 2.66135 4.06666 2.82526C4.00227 2.90689 3.9382 2.98872 3.8751 3.07132C3.81514 3.1498 3.75644 3.22932 3.69677 3.30806C3.63315 3.39204 3.56896 3.47563 3.50527 3.55961C3.47586 3.59834 3.44626 3.63704 3.41765 3.67641C3.38312 3.72378 3.3486 3.77108 3.31408 3.81851C3.30499 3.83097 3.29693 3.84433 3.28845 3.85718C3.2696 3.88554 3.25078 3.91392 3.23193 3.94235C3.216 3.9664 3.20001 3.99048 3.18405 4.01454C3.17894 4.02221 3.17416 4.02979 3.16957 4.03772C3.13912 4.09046 3.10884 4.14319 3.07843 4.19592C3.04194 4.25921 3.0063 4.3229 2.97065 4.38671C2.96198 4.40225 2.96278 4.42078 2.97139 4.4352C2.96134 4.44095 2.95122 4.44657 2.9412 4.45235C2.93892 4.45341 2.93667 4.4545 2.93439 4.45556C2.93436 4.4555 2.9343 4.45543 2.93427 4.45537C2.93346 4.45309 2.93244 4.4511 2.93105 4.44927C2.9148 4.42823 2.89913 4.40649 2.88141 4.38664C2.87511 4.37951 2.86561 4.37608 2.8561 4.37608C2.84948 4.37608 2.84293 4.37778 2.83738 4.38099C2.82126 4.39043 2.81313 4.41439 2.82434 4.4307C2.83786 4.45029 2.85225 4.46927 2.86651 4.48838C2.8525 4.49535 2.83847 4.50235 2.82447 4.50929C2.81686 4.51308 2.80928 4.51693 2.80167 4.52078C2.79377 4.51462 2.78423 4.51115 2.77424 4.51115C2.7665 4.51115 2.75863 4.51304 2.75138 4.51687C2.72745 4.52952 2.70343 4.54208 2.68024 4.55604C2.65487 4.57136 2.6296 4.58684 2.60439 4.60242C2.55651 4.63203 2.50895 4.66212 2.46177 4.69269C2.36565 4.75493 2.27089 4.81932 2.17747 4.88557C1.98748 5.02025 1.80321 5.16319 1.62559 5.31387C1.45021 5.46272 1.28033 5.61831 1.11806 5.78136C1.03793 5.8618 0.95983 5.94414 0.883463 6.02815C0.845536 6.0698 0.808059 6.11181 0.771577 6.15471C0.758667 6.1699 0.745886 6.18519 0.733201 6.20057C0.823345 5.8672 0.937221 5.5406 1.07027 5.22209ZM0.503937 9.03913C0.495106 8.95352 0.487624 8.86777 0.481458 8.782C0.468484 8.60322 0.463056 8.42412 0.462671 8.24492C0.461965 7.89568 0.484284 7.54721 0.529629 7.20093C0.56534 6.94321 0.613351 6.68765 0.673629 6.43478C0.695916 6.40752 0.718428 6.38041 0.741037 6.35347C0.77739 6.31018 0.814995 6.26804 0.852472 6.22572C0.889693 6.18365 0.926816 6.14135 0.964486 6.09961C1.04056 6.01528 1.11851 5.93249 1.19789 5.8513C1.27724 5.77018 1.35808 5.69022 1.44093 5.61269C1.6199 5.44531 1.80668 5.28645 2.00049 5.13651C2.12724 5.03894 2.25663 4.94501 2.38903 4.85525C2.45259 4.81209 2.51688 4.77002 2.58175 4.72888C2.57809 4.73274 2.57571 4.7371 2.57337 4.74182C2.57041 4.7478 2.5699 4.75448 2.57337 4.76048C2.57501 4.76324 2.57729 4.76546 2.58005 4.7671C2.5839 4.76938 2.58994 4.77069 2.59427 4.76899C2.606 4.76427 2.61772 4.75981 2.62886 4.7538C2.64033 4.74777 2.65128 4.74083 2.66232 4.73409C2.66932 4.72975 2.6762 4.72525 2.6831 4.72079C2.69909 4.71045 2.71534 4.70043 2.73118 4.68974C2.76053 4.66989 2.78988 4.64998 2.8191 4.62994C2.8482 4.61003 2.87726 4.59005 2.90642 4.57021C2.91089 4.56716 2.91535 4.56414 2.91981 4.56112C2.92248 4.56478 2.92515 4.56841 2.92778 4.57207C2.96465 4.62297 3.00142 4.67387 3.03822 4.72477C3.06834 4.76649 3.09789 4.80856 3.12766 4.85037C3.16488 4.90252 3.20255 4.95419 3.24067 5.00564C3.30525 5.09296 3.37214 5.17851 3.43727 5.26532C3.47094 5.31024 3.50524 5.35475 3.53793 5.40045C3.57194 5.44788 3.60614 5.49519 3.63967 5.54301C3.70997 5.64323 3.77994 5.74369 3.85227 5.84247C3.88888 5.89247 3.92642 5.94173 3.96396 5.991C3.98146 6.01386 3.99967 6.03612 4.01775 6.05853C4.03348 6.07806 4.049 6.09778 4.06518 6.11685C4.14322 6.20883 4.22254 6.29955 4.30292 6.38944C4.38067 6.47637 4.46298 6.5606 4.55604 6.63132C4.58296 6.65178 4.61022 6.67162 4.63761 6.69147C4.63395 6.70168 4.63029 6.71189 4.62673 6.72207C4.58119 6.85095 4.53947 6.98117 4.50081 7.11232C4.42345 7.37476 4.36021 7.64147 4.31069 7.91058C4.21438 8.43362 4.17148 8.96624 4.18163 9.49788C4.18275 9.57592 4.18529 9.65399 4.18876 9.73196C4.19072 9.77548 4.19274 9.81902 4.19518 9.86247C4.19643 9.8854 4.19695 9.90872 4.20029 9.93146C4.20147 9.93913 4.2026 9.94684 4.20382 9.95451C4.20558 9.97725 4.20741 9.99992 4.20937 10.0226C4.21172 10.0497 4.21422 10.0767 4.21686 10.1038C4.18587 10.1268 4.15488 10.1498 4.12382 10.1727C4.11721 10.174 4.11091 10.1764 4.10561 10.1801C4.06139 10.2104 4.01611 10.2393 3.97289 10.2711C3.9259 10.3058 3.88017 10.3422 3.83425 10.3783C3.83425 10.3783 3.83425 10.3783 3.83431 10.3782C3.79998 10.4047 3.76585 10.4314 3.7302 10.4559C3.70791 10.4712 3.68559 10.4865 3.66324 10.5018C3.64083 10.5172 3.61725 10.5312 3.59433 10.546C3.55608 10.5704 3.5176 10.5945 3.47974 10.6194C3.43364 10.6498 3.38836 10.681 3.34298 10.7125C3.30152 10.7414 3.26109 10.7718 3.22034 10.8016C3.20357 10.8139 3.18681 10.8261 3.17008 10.8384C3.15107 10.8525 3.13228 10.867 3.11282 10.8804C3.088 10.8975 3.06324 10.9146 3.03841 10.9317C3.02374 10.9418 3.00925 10.952 2.99419 10.9614C2.95135 10.9883 2.90902 11.0162 2.86506 11.0411C2.82103 11.0661 2.77707 11.0913 2.73259 11.1156C2.68705 11.1405 2.64151 11.1653 2.59607 11.1903C2.56759 11.206 2.5392 11.2219 2.51084 11.2378C2.50914 11.2313 2.5058 11.2252 2.50069 11.2201C2.49315 11.2126 2.48261 11.2086 2.47221 11.2086C2.462 11.2086 2.45191 11.2124 2.44462 11.2201C2.41948 11.2469 2.39436 11.2735 2.36771 11.2988C2.35682 11.3091 2.34623 11.32 2.3347 11.3296C2.32782 11.3353 2.32095 11.3409 2.31418 11.3467C2.29799 11.3553 2.28187 11.3641 2.26604 11.3733C2.25765 11.3771 2.25255 11.3859 2.25104 11.3951C2.24712 11.3978 2.24324 11.4006 2.23932 11.4033C2.23701 11.4049 2.23463 11.4066 2.23228 11.4082C2.22249 11.3869 2.21282 11.3655 2.20306 11.3442C2.19722 11.3314 2.1819 11.3215 2.16873 11.3178C2.16379 11.3165 2.15868 11.3158 2.15361 11.3158C2.14346 11.3158 2.13334 11.3184 2.12451 11.3236C2.12252 11.3248 2.12075 11.3263 2.11895 11.3276C2.10367 11.3126 2.08848 11.2976 2.07306 11.2827C2.06715 11.277 2.06015 11.2729 2.05277 11.2705C1.9 11.1137 1.7535 10.951 1.61415 10.7822C1.57215 10.7303 1.53069 10.678 1.48981 10.6252C1.48987 10.6253 1.49 10.6255 1.49006 10.6256C1.48968 10.6251 1.48933 10.6246 1.48894 10.6242C1.48901 10.6242 1.48913 10.6243 1.4892 10.6244C1.48862 10.6237 1.48807 10.623 1.4875 10.6222C1.48762 10.6224 1.48775 10.6226 1.48788 10.6228C1.48762 10.6225 1.48743 10.6222 1.48724 10.622C1.4873 10.622 1.48743 10.6221 1.4875 10.6222C1.48737 10.6221 1.4873 10.622 1.48724 10.6219L1.48717 10.6218C1.48705 10.6218 1.48705 10.6217 1.48698 10.6217C1.48698 10.6216 1.48692 10.6216 1.48692 10.6216C1.48692 10.6216 1.48692 10.6216 1.48698 10.6216C1.48692 10.6215 1.48685 10.6215 1.48679 10.6213C1.48679 10.6213 1.48679 10.6213 1.48679 10.6214C1.48679 10.6213 1.48679 10.6213 1.48672 10.6213C1.48647 10.6209 1.48628 10.6208 1.48615 10.6204C1.48615 10.6205 1.48615 10.6206 1.48615 10.6206C1.16652 10.2051 0.886513 9.75948 0.6542 9.28949C0.641804 9.26435 0.629569 9.23904 0.617462 9.21377C0.613608 9.20532 0.604038 9.19871 0.595367 9.19569C0.572952 9.14839 0.550952 9.10089 0.529404 9.0532C0.525133 9.04376 0.514792 9.0391 0.504708 9.0391C0.504387 9.03913 0.504194 9.03913 0.503937 9.03913ZM1.75318 10.9523C1.75305 10.9522 1.75298 10.952 1.75285 10.9519C1.75266 10.9517 1.7524 10.9513 1.75221 10.9511C1.75257 10.9515 1.75285 10.9519 1.75318 10.9523ZM3.46648 14.37C3.21546 14.173 2.97659 13.9616 2.75019 13.7367C2.51042 13.4986 2.28733 13.2438 2.08 12.977C1.87874 12.7141 1.69373 12.4396 1.52578 12.1543C1.35425 11.8632 1.20345 11.5602 1.07085 11.2495C0.939758 10.9359 0.828965 10.6146 0.738435 10.2868C0.646975 9.95586 0.57931 9.61847 0.53207 9.27842C0.527156 9.241 0.522435 9.20353 0.518004 9.16605C0.52645 9.18426 0.535024 9.2024 0.543566 9.22055C0.543245 9.22154 0.542892 9.22257 0.542635 9.22363C0.539552 9.2349 0.541896 9.24492 0.54681 9.25513C0.774789 9.72859 1.04737 10.1801 1.36434 10.5994C1.42108 10.6743 1.47918 10.7483 1.53859 10.8212C1.54691 10.8315 1.55529 10.8417 1.56367 10.8518C1.56871 10.8581 1.57382 10.8644 1.57892 10.8706C1.64974 10.9575 1.72193 11.0433 1.79637 11.127C1.85854 11.1969 1.92197 11.2658 1.98661 11.3335C1.98905 11.3419 1.99368 11.3494 1.99978 11.3561C2.02207 11.3805 2.04451 11.4046 2.06776 11.4281C2.08466 11.4452 2.10158 11.4621 2.11867 11.479C2.11867 11.4811 2.11886 11.4832 2.11924 11.4853C2.12168 11.4991 2.12384 11.513 2.12692 11.5268C2.13013 11.5414 2.13556 11.5557 2.14028 11.5699C2.14577 11.5862 2.15129 11.6025 2.15746 11.6186C2.16754 11.6446 2.17756 11.6707 2.18765 11.6967C2.20126 11.732 2.2153 11.767 2.22965 11.802C2.26645 11.8916 2.30387 11.9809 2.34179 12.0701C2.35451 12.1001 2.367 12.1302 2.38033 12.1599C2.40397 12.2126 2.42751 12.2653 2.45108 12.3179C2.4636 12.3458 2.47552 12.374 2.489 12.4015C2.51383 12.452 2.53865 12.5025 2.56348 12.5531C2.57748 12.5815 2.59087 12.6102 2.60593 12.638C2.63288 12.6877 2.65979 12.7373 2.68676 12.787C2.70439 12.8195 2.72379 12.8511 2.74271 12.8829C2.76191 12.9154 2.78095 12.948 2.80074 12.9802C2.89239 13.1291 2.9833 13.2783 3.07203 13.4289C3.11889 13.5085 3.1659 13.588 3.21308 13.6674C3.25781 13.7427 3.30518 13.8163 3.35464 13.8885C3.3942 13.9465 3.43502 14.0036 3.47563 14.0608C3.49451 14.0874 3.5133 14.1141 3.53196 14.1408C3.54198 14.1553 3.55206 14.1697 3.56215 14.1842C3.57197 14.1984 3.58254 14.2121 3.5932 14.2257C3.59092 14.2279 3.58874 14.23 3.58652 14.2322C3.56276 14.2558 3.54008 14.281 3.51873 14.3068C3.50123 14.3278 3.48385 14.3489 3.46648 14.37ZM8.24203 16.0115C8.2377 16.0115 8.23326 16.0115 8.22893 16.0115C7.88736 16.0115 7.5459 15.9873 7.20735 15.9432C6.86893 15.8965 6.53427 15.8287 6.20443 15.7397C5.87131 15.6499 5.54484 15.5362 5.22659 15.4032C4.91238 15.2693 4.60711 15.1156 4.31211 14.9432C4.04697 14.7883 3.79189 14.6166 3.54692 14.4317C3.56141 14.414 3.57596 14.3963 3.5905 14.3786C3.60197 14.3646 3.61424 14.3512 3.62634 14.3377C3.64796 14.3136 3.6705 14.2902 3.69558 14.2696C3.70772 14.2607 3.72028 14.2522 3.73303 14.2441C3.76366 14.2666 3.79632 14.2878 3.83017 14.3049C3.87018 14.3251 3.911 14.3446 3.95275 14.3614C3.99675 14.3886 4.04305 14.4119 4.08853 14.4365C4.10555 14.4457 4.12234 14.4556 4.13981 14.464C4.17145 14.4791 4.20305 14.4943 4.23462 14.5094C4.25559 14.5195 4.27627 14.5299 4.29778 14.5386C4.33105 14.5521 4.36429 14.5655 4.39756 14.579C4.41532 14.5863 4.43295 14.5935 4.4511 14.5999C4.48649 14.6122 4.52191 14.6245 4.5573 14.6369C4.60932 14.655 4.66315 14.6681 4.71617 14.683C4.73633 14.6886 4.75679 14.693 4.77715 14.6977C4.80644 14.7046 4.83573 14.7114 4.86508 14.7183C4.91925 14.7309 4.97362 14.7432 5.02774 14.7562C5.13506 14.7821 5.24178 14.8105 5.349 14.8368C5.36191 14.8399 5.37508 14.8421 5.38806 14.8448C5.40116 14.8475 5.41426 14.8506 5.42749 14.8528C5.45716 14.8578 5.48684 14.8628 5.51658 14.8677C5.57188 14.8769 5.62756 14.8843 5.68312 14.8921C5.79253 14.9076 5.90284 14.9165 6.01332 14.9186C6.12613 14.9208 6.23895 14.9217 6.3518 14.9259C6.42621 14.9288 6.50052 14.9326 6.57493 14.9354C6.601 14.9364 6.62342 14.9167 6.62975 14.8925C6.63944 14.8923 6.64908 14.8919 6.65871 14.8915C6.66199 14.8972 6.66639 14.9019 6.67252 14.9054C6.68171 14.9108 6.69291 14.9123 6.70319 14.9094C6.71421 14.9064 6.72384 14.8979 6.72895 14.8874C6.74638 14.886 6.76379 14.8843 6.78116 14.8821C7.01633 15.0377 7.26011 15.1801 7.51044 15.3095C7.9153 15.5188 8.33837 15.6939 8.77301 15.8312C8.91601 15.8764 9.06052 15.9171 9.20603 15.9538C8.88608 15.9921 8.56436 16.0111 8.24203 16.0115ZM15.7518 10.2727C15.6627 10.603 15.5499 10.9265 15.4182 11.2421C15.2865 11.5514 15.1362 11.8519 14.9673 12.1425C14.7949 12.439 14.6015 12.7228 14.3925 12.9945C14.19 13.2539 13.9722 13.5006 13.7401 13.7336C13.5031 13.9716 13.2498 14.1931 12.9846 14.3989C12.9515 14.4243 12.9181 14.4494 12.8846 14.4742C12.8613 14.4647 12.8355 14.4605 12.8108 14.4555C12.7829 14.4498 12.7553 14.443 12.7276 14.4365C12.6913 14.4279 12.6552 14.4186 12.6192 14.4089C12.6205 14.4058 12.6216 14.4026 12.6226 14.3992C12.6279 14.3801 12.6252 14.3592 12.6152 14.3421C12.6055 14.3255 12.5894 14.3132 12.5709 14.3081C12.5646 14.3063 12.5574 14.3054 12.5501 14.3054C12.5428 14.3054 12.5355 14.3064 12.5287 14.3085C12.5317 14.2973 12.5348 14.2861 12.5379 14.2749C12.5433 14.2546 12.5486 14.2343 12.5539 14.214C12.5954 14.107 12.6345 13.9991 12.6713 13.8904C12.715 13.7609 12.7551 13.6301 12.7917 13.4984C12.8199 13.3971 12.8455 13.2951 12.8695 13.1927C12.8834 13.1351 12.8968 13.0773 12.9095 13.0194C12.9637 12.7718 13.0059 12.5214 13.036 12.2696C13.0395 12.2695 13.0429 12.2685 13.0456 12.2664C13.0516 12.2618 13.0575 12.2575 13.0628 12.2521C13.0673 12.2476 13.0712 12.2426 13.0758 12.2382C13.083 12.2315 13.0901 12.2247 13.0973 12.2179C13.1132 12.2029 13.1296 12.1883 13.1459 12.1736C13.1521 12.1679 13.1526 12.1581 13.1483 12.1511C13.1501 12.1489 13.152 12.1467 13.1538 12.1445C13.1853 12.1057 13.2176 12.0675 13.2479 12.0279C13.3129 11.9429 13.3777 11.8578 13.442 11.7723C13.4941 11.703 13.5461 11.6336 13.599 11.5649C13.5987 11.5653 13.5983 11.5656 13.5981 11.566C13.5982 11.5658 13.5983 11.5657 13.5984 11.5655C13.5992 11.5646 13.5999 11.5635 13.6007 11.5625C13.6009 11.5622 13.6011 11.5619 13.6014 11.5616C13.6011 11.562 13.6009 11.5623 13.6006 11.5627C13.6014 11.5616 13.6023 11.5605 13.6031 11.5595C13.6031 11.5594 13.6032 11.5593 13.6032 11.5592C13.6035 11.5589 13.6038 11.5586 13.604 11.5583C13.6039 11.5584 13.6039 11.5584 13.6039 11.5584C13.6371 11.5153 13.6704 11.4723 13.7036 11.4292C13.7036 11.4292 13.7036 11.4293 13.7036 11.4294C13.7036 11.4292 13.7037 11.4292 13.7038 11.4291C13.7038 11.429 13.7038 11.429 13.7038 11.429L13.7038 11.429C13.7038 11.429 13.7038 11.4289 13.7039 11.4288V11.4289C13.7041 11.4286 13.7043 11.4283 13.7046 11.428C13.7049 11.4276 13.7052 11.4272 13.7055 11.4268C13.7055 11.4268 13.7055 11.4268 13.7055 11.4267L13.7056 11.4267C13.7057 11.4267 13.7057 11.4266 13.7057 11.4265C13.7057 11.4265 13.7057 11.4265 13.7058 11.4265C13.7059 11.4264 13.7059 11.4263 13.7059 11.4263V11.4262L13.706 11.4261C13.706 11.4261 13.706 11.4261 13.7061 11.426C13.7062 11.4259 13.7062 11.4259 13.7063 11.4258C13.7064 11.4257 13.7065 11.4255 13.7066 11.4254L13.7067 11.4253V11.4252C13.7068 11.4252 13.7068 11.425 13.7069 11.425C13.7069 11.425 13.7068 11.425 13.7068 11.4251C13.7069 11.425 13.7069 11.425 13.707 11.4249C13.707 11.4249 13.707 11.4249 13.7071 11.4249C13.7071 11.4248 13.7071 11.4248 13.7071 11.4247C13.7072 11.4246 13.7073 11.4245 13.7073 11.4244C13.7074 11.4243 13.7074 11.4243 13.7075 11.4243C13.7075 11.4242 13.7075 11.4241 13.7076 11.4241C13.7076 11.4241 13.7077 11.4241 13.7077 11.424C13.7077 11.424 13.7077 11.424 13.7077 11.424C13.7077 11.424 13.7077 11.424 13.7077 11.4239C13.708 11.4235 13.7083 11.4232 13.7086 11.4228C13.7086 11.4227 13.7088 11.4226 13.7088 11.4225C13.7089 11.4224 13.709 11.4224 13.709 11.4223C13.7091 11.4223 13.7091 11.4223 13.7092 11.4222H13.7091C13.7093 11.4219 13.7094 11.4217 13.7097 11.4214C13.7103 11.4206 13.7109 11.4198 13.7116 11.419C13.7116 11.419 13.7116 11.419 13.7116 11.419C13.7434 11.3781 13.7752 11.3372 13.8069 11.2961C13.8068 11.2962 13.8068 11.2963 13.8068 11.2963C13.8068 11.2961 13.8069 11.296 13.807 11.2959C13.807 11.2959 13.8069 11.296 13.8069 11.2961C13.8079 11.2948 13.8089 11.2936 13.8099 11.2922C13.8098 11.2924 13.8096 11.2925 13.8096 11.2925C13.8106 11.2912 13.8117 11.2899 13.8127 11.2886C13.8444 11.2476 13.8762 11.2067 13.9078 11.1656C13.9085 11.1647 13.9092 11.1639 13.9098 11.163C13.9097 11.1632 13.9096 11.1633 13.9096 11.1633C13.9099 11.1629 13.9103 11.1624 13.9106 11.162C13.9106 11.1619 13.9107 11.1618 13.9107 11.1618C13.9107 11.1618 13.9107 11.1618 13.9107 11.1618C13.9108 11.1618 13.9109 11.1616 13.9109 11.1616C13.911 11.1615 13.9111 11.1615 13.9111 11.1614C13.9112 11.1613 13.9113 11.1612 13.9113 11.1611C13.9096 11.1634 13.9078 11.1657 13.9061 11.1679C13.9387 11.1256 13.9715 11.0834 14.0041 11.0411C14.0039 11.0413 14.0038 11.0415 14.0036 11.0418C14.0043 11.0408 14.005 11.0399 14.0057 11.039C14.006 11.0386 14.0063 11.0383 14.0066 11.0379C14.0055 11.0393 14.0044 11.0408 14.0033 11.0422C14.1248 10.8862 14.2469 10.7306 14.3657 10.5725C14.4274 10.4905 14.4888 10.4082 14.5505 10.3262C14.6058 10.2529 14.6623 10.1805 14.7179 10.1075C14.7755 10.0318 14.8333 9.95638 14.8903 9.8803C14.9504 9.80017 15.0093 9.71928 15.0671 9.63745C15.1152 9.56937 15.1619 9.50026 15.211 9.43292C15.2156 9.42505 15.2185 9.41667 15.2198 9.40784C15.2745 9.4115 15.3293 9.41439 15.3841 9.41689C15.4869 9.42148 15.5898 9.42376 15.6927 9.42376C15.6994 9.42376 15.706 9.42376 15.7127 9.42376C15.7134 9.42376 15.714 9.42376 15.7147 9.4237C15.7307 9.42364 15.7466 9.42357 15.7626 9.42338C15.7998 9.42312 15.8372 9.42287 15.8744 9.42068C15.8869 9.42036 15.8983 9.41432 15.9055 9.40501C15.9155 9.40475 15.9255 9.40443 15.9355 9.40414C15.8901 9.69683 15.829 9.98663 15.7518 10.2727ZM16.0203 8.47091C16.0176 8.56275 16.0128 8.65447 16.0069 8.74613C15.9954 8.92523 15.9769 9.10388 15.9534 9.28169C15.95 9.30639 15.9464 9.33108 15.9428 9.35571C15.9299 9.35616 15.9171 9.35655 15.9042 9.3569C15.897 9.34833 15.8862 9.34287 15.8744 9.34274C15.8394 9.34236 15.8046 9.34332 15.7696 9.34374C15.7507 9.34399 15.7318 9.34412 15.7129 9.34419C15.7129 9.34419 15.7128 9.34419 15.7127 9.34419C15.7055 9.34419 15.6982 9.34425 15.691 9.34425C15.5908 9.34438 15.4905 9.34313 15.3903 9.34014C15.3349 9.33857 15.2795 9.33629 15.2241 9.33359C15.2049 9.33262 15.1857 9.33163 15.1665 9.33057C15.1615 9.32945 15.1564 9.32887 15.1513 9.32887C15.149 9.32887 15.1466 9.329 15.144 9.32932C15.1439 9.32925 15.1436 9.32925 15.1434 9.32925C15.1342 9.32867 15.1249 9.32826 15.1157 9.32787C15.1104 9.30401 15.1044 9.28025 15.0987 9.25651C15.0966 9.24781 15.0945 9.23911 15.0924 9.23041C15.0927 9.22562 15.0923 9.22077 15.0907 9.21602C15.0887 9.20992 15.0866 9.20378 15.0846 9.19765C15.0784 9.1717 15.0723 9.14569 15.0665 9.11961C15.046 9.02703 15.0302 8.93348 15.0135 8.84012C15.0092 8.81601 15.0052 8.79173 15.0005 8.76767C14.9956 8.7424 14.9913 8.71697 14.9857 8.69189C14.9797 8.66504 14.9737 8.63822 14.9677 8.61144C14.9621 8.58681 14.9553 8.56243 14.9491 8.53793C14.9383 8.4947 14.926 8.45164 14.9124 8.40912C14.8975 8.36243 14.8824 8.31564 14.8654 8.26965C14.8474 8.22151 14.8295 8.17353 14.8104 8.12584C14.7913 8.07764 14.7712 8.02989 14.7511 7.9821C14.7144 7.89465 14.6759 7.80775 14.6359 7.72169C14.6151 7.67695 14.5951 7.6318 14.5734 7.58745C14.5598 7.55954 14.5462 7.53157 14.5326 7.50366C14.5245 7.48697 14.5167 7.47007 14.508 7.45366C14.4854 7.41063 14.4636 7.36718 14.4398 7.32485C14.4191 7.28808 14.3986 7.25115 14.3773 7.21467C14.3745 7.2094 14.3717 7.20414 14.369 7.19884C14.3479 7.15809 14.3254 7.11807 14.3032 7.0779C14.293 7.05924 14.2819 7.04097 14.2713 7.02253C14.2611 7.00509 14.2513 6.98734 14.2408 6.97006C14.2171 6.93133 14.1943 6.89183 14.1694 6.8539C14.1438 6.81492 14.1189 6.77541 14.0919 6.73742C14.0638 6.69792 14.036 6.65836 14.0068 6.61976C13.9923 6.60059 13.9779 6.58132 13.9632 6.56224C13.9582 6.55209 13.9532 6.54191 13.9488 6.53154C13.9294 6.48661 13.91 6.44172 13.8907 6.39673C13.8851 6.38285 13.8797 6.36885 13.8744 6.35491C13.8704 6.34489 13.8657 6.33683 13.8561 6.33125C13.8546 6.33041 13.853 6.32996 13.8515 6.32932C13.8602 6.26368 13.8681 6.19797 13.8752 6.13217C13.9006 5.89594 13.9153 5.65865 13.9195 5.4211C13.9281 4.94084 13.8926 4.4599 13.8147 3.98592C13.8009 3.90162 13.7854 3.81768 13.7686 3.73396C13.7742 3.73238 13.7795 3.72991 13.7845 3.72657C13.8112 3.70862 13.8385 3.69173 13.8677 3.67821C13.9554 3.64413 14.0489 3.63013 14.1418 3.61697C14.2179 3.60884 14.294 3.60406 14.3703 3.59914C14.4071 3.5968 14.444 3.5941 14.4808 3.59076C14.6599 3.83065 14.8252 4.08028 14.9762 4.33899C15.1426 4.62448 15.2894 4.92118 15.419 5.22511C15.5496 5.53761 15.6606 5.85756 15.7511 6.184C15.8416 6.51092 15.9088 6.84404 15.9558 7.17992C16.0005 7.52306 16.024 7.86845 16.0259 8.21448C16.0264 8.2999 16.0229 8.38545 16.0203 8.47091Z" fill="white"/>
</svg>
