<svg width="55" height="41" viewBox="0 0 55 41" fill="none" xmlns="http://www.w3.org/2000/svg">
<path d="M23.6664 40.571C23.6664 40.571 20.2855 40.571 20.2855 37.1901C20.2855 33.8092 23.6664 23.6664 37.1901 23.6664C50.7137 23.6664 54.0946 33.8092 54.0946 37.1901C54.0946 40.571 50.7137 40.571 50.7137 40.571H23.6664ZM37.1901 20.2855C39.8801 20.2855 42.4599 19.2169 44.3621 17.3147C46.2642 15.4126 47.3328 12.8328 47.3328 10.1427C47.3328 7.45272 46.2642 4.87288 44.3621 2.97074C42.4599 1.06861 39.8801 0 37.1901 0C34.5 0 31.9202 1.06861 30.0181 2.97074C28.1159 4.87288 27.0473 7.45272 27.0473 10.1427C27.0473 12.8328 28.1159 15.4126 30.0181 17.3147C31.9202 19.2169 34.5 20.2855 37.1901 20.2855ZM17.6349 40.571C17.1339 39.5154 16.8839 38.3583 16.9046 37.1901C16.9046 32.6089 19.2036 27.8925 23.45 24.6131C21.3308 23.9586 19.1224 23.6392 16.9046 23.6664C3.38091 23.6664 0 33.8092 0 37.1901C0 40.571 3.38091 40.571 3.38091 40.571H17.6349ZM15.2141 20.2855C17.4558 20.2855 19.6057 19.395 21.1908 17.8099C22.7759 16.2248 23.6664 14.0749 23.6664 11.8332C23.6664 9.59152 22.7759 7.44164 21.1908 5.85653C19.6057 4.27142 17.4558 3.38091 15.2141 3.38091C12.9724 3.38091 10.8226 4.27142 9.23745 5.85653C7.65234 7.44164 6.76183 9.59152 6.76183 11.8332C6.76183 14.0749 7.65234 16.2248 9.23745 17.8099C10.8226 19.395 12.9724 20.2855 15.2141 20.2855Z" fill="url(#paint0_linear_169_75)"/>
<defs>
<linearGradient id="paint0_linear_169_75" x1="0" y1="20.2855" x2="54.0946" y2="20.2855" gradientUnits="userSpaceOnUse">
<stop stop-color="#FFF17F"/>
<stop offset="1" stop-color="#E08E1A"/>
</linearGradient>
</defs>
</svg>
