<svg width="42" height="42" viewBox="0 0 42 42" fill="none" xmlns="http://www.w3.org/2000/svg">
<path d="M20.9399 0C9.36683 0 0 9.36542 0 20.9399C0 32.5129 9.36536 41.8797 20.9399 41.8797C32.5129 41.8797 41.8797 32.5144 41.8797 20.9399C41.8797 9.36683 32.5143 0 20.9399 0ZM24.6416 29.577L23.4077 30.811C21.7597 32.459 19.5688 33.3665 17.2381 33.3665C14.9076 33.3665 12.7166 32.459 11.0686 30.8111C9.42075 29.1631 8.51322 26.9721 8.51322 24.6416C8.51322 22.311 9.42075 20.12 11.0686 18.472L12.3026 17.2381C12.9842 16.5568 14.089 16.5566 14.7704 17.2382C15.4519 17.9197 15.4518 19.0246 14.7703 19.706L13.5364 20.9399C12.5477 21.9286 12.0032 23.2431 12.0032 24.6416C12.0032 26.0398 12.5477 27.3545 13.5365 28.3432C14.5252 29.332 15.8399 29.8766 17.2381 29.8766C18.6365 29.8766 19.9512 29.332 20.9399 28.3432L22.1738 27.1093C22.8552 26.4278 23.9601 26.4278 24.6415 27.1093C25.3229 27.7908 25.323 28.8956 24.6416 29.577ZM17.2381 22.1738L22.1736 17.2382C22.8551 16.5567 23.9601 16.5567 24.6415 17.2382C25.3229 17.9197 25.3229 19.0247 24.6415 19.7061L19.706 24.6416C19.3652 24.9823 18.9187 25.1526 18.472 25.1526C18.0255 25.1526 17.5788 24.9823 17.238 24.6416C16.5568 23.9601 16.5568 22.8552 17.2381 22.1738ZM30.811 23.4076L29.5771 24.6416C29.2364 24.9823 28.7898 25.1526 28.3432 25.1526C27.8966 25.1526 27.45 24.9823 27.1092 24.6416C26.4278 23.9601 26.4278 22.8552 27.1092 22.1738L28.3432 20.9399C29.332 19.9511 29.8765 18.6366 29.8765 17.2382C29.8765 15.8399 29.332 14.5253 28.3432 13.5365C27.3545 12.5478 26.0398 12.0032 24.6415 12.0032C23.2433 12.0032 21.9286 12.5478 20.9399 13.5365L19.7059 14.7706C19.0244 15.4519 17.9195 15.4519 17.238 14.7706C16.5566 14.089 16.5566 12.9841 17.238 12.3027L18.472 11.0688C20.12 9.42081 22.3109 8.51328 24.6415 8.51328C29.4635 8.51328 33.3664 12.4155 33.3664 17.2382C33.3665 19.5688 32.4589 21.7596 30.811 23.4076Z" fill="url(#paint0_linear_168_71)"/>
<defs>
<linearGradient id="paint0_linear_168_71" x1="20.9399" y1="0" x2="20.9399" y2="41.8797" gradientUnits="userSpaceOnUse">
<stop stop-color="#E1C300"/>
<stop offset="1" stop-color="#B37800"/>
</linearGradient>
</defs>
</svg>
